<svg id="svg" version="1.1" width="400" height="264.93506493506493" viewBox="0 0 400 264.93506493506493" xmlns="http://www.w3.org/2000/svg" xmlns:xlink="http://www.w3.org/1999/xlink" ><g id="svgg"><path id="path0" d="M0.000 46.521 L 0.000 93.042 0.663 93.042 L 1.325 93.042 1.325 88.801 C 1.325 85.207,1.386 84.559,1.723 84.559 C 2.036 84.559,2.121 84.191,2.121 82.836 C 2.121 81.481,2.206 81.113,2.518 81.113 C 2.834 81.113,2.916 80.730,2.916 79.258 C 2.916 77.579,2.966 77.402,3.446 77.402 C 3.898 77.402,3.976 77.226,3.976 76.209 C 3.976 75.326,4.079 75.017,4.374 75.017 C 4.651 75.017,4.771 74.737,4.771 74.089 C 4.771 73.441,4.891 73.161,5.169 73.161 C 5.434 73.161,5.567 72.896,5.567 72.366 C 5.567 71.836,5.699 71.571,5.964 71.571 C 6.242 71.571,6.362 71.291,6.362 70.643 C 6.362 69.892,6.463 69.715,6.892 69.715 C 7.304 69.715,7.422 69.538,7.422 68.920 C 7.422 68.390,7.555 68.125,7.820 68.125 C 8.097 68.125,8.217 67.845,8.217 67.197 C 8.217 66.549,8.337 66.269,8.615 66.269 C 8.893 66.269,9.013 65.989,9.013 65.341 C 9.013 64.590,9.114 64.414,9.543 64.414 C 9.837 64.414,10.073 64.237,10.073 64.016 C 10.073 63.797,10.252 63.618,10.471 63.618 C 10.736 63.618,10.868 63.353,10.868 62.823 C 10.868 62.293,11.001 62.028,11.266 62.028 C 11.487 62.028,11.663 61.792,11.663 61.498 C 11.663 61.203,11.840 60.968,12.061 60.968 C 12.280 60.968,12.459 60.789,12.459 60.570 C 12.459 60.349,12.694 60.172,12.989 60.172 C 13.283 60.172,13.519 59.996,13.519 59.775 C 13.519 59.556,13.698 59.377,13.917 59.377 C 14.194 59.377,14.314 59.097,14.314 58.449 C 14.314 57.801,14.434 57.522,14.712 57.522 C 14.930 57.522,15.109 57.343,15.109 57.124 C 15.109 56.905,15.288 56.726,15.507 56.726 C 15.726 56.726,15.905 56.547,15.905 56.329 C 15.905 56.108,16.140 55.931,16.435 55.931 C 16.729 55.931,16.965 55.754,16.965 55.533 C 16.965 55.315,17.144 55.136,17.362 55.136 C 17.583 55.136,17.760 54.900,17.760 54.606 C 17.760 54.311,17.937 54.076,18.158 54.076 C 18.376 54.076,18.555 53.897,18.555 53.678 C 18.555 53.459,18.734 53.280,18.953 53.280 C 19.172 53.280,19.351 53.101,19.351 52.883 C 19.351 52.662,19.586 52.485,19.881 52.485 C 20.234 52.485,20.411 52.308,20.411 51.955 C 20.411 51.543,20.588 51.425,21.206 51.425 C 21.736 51.425,22.001 51.292,22.001 51.027 C 22.001 50.806,22.237 50.630,22.531 50.630 C 22.826 50.630,23.062 50.453,23.062 50.232 C 23.062 50.013,23.241 49.834,23.459 49.834 C 23.678 49.834,23.857 49.655,23.857 49.437 C 23.857 49.172,24.122 49.039,24.652 49.039 C 25.271 49.039,25.447 48.921,25.447 48.509 C 25.447 48.156,25.624 47.979,25.977 47.979 C 26.272 47.979,26.508 47.802,26.508 47.581 C 26.508 47.316,26.773 47.184,27.303 47.184 C 27.833 47.184,28.098 47.051,28.098 46.786 C 28.098 46.508,28.378 46.388,29.026 46.388 C 29.674 46.388,29.954 46.268,29.954 45.991 C 29.954 45.726,30.219 45.593,30.749 45.593 C 31.367 45.593,31.544 45.475,31.544 45.063 C 31.544 44.634,31.721 44.533,32.472 44.533 C 33.120 44.533,33.400 44.413,33.400 44.135 C 33.400 43.870,33.665 43.738,34.195 43.738 C 34.725 43.738,34.990 43.605,34.990 43.340 C 34.990 43.062,35.270 42.942,35.918 42.942 C 36.669 42.942,36.846 42.841,36.846 42.412 C 36.846 41.953,37.022 41.882,38.171 41.882 C 39.172 41.882,39.496 41.785,39.496 41.484 C 39.496 41.172,39.865 41.087,41.219 41.087 C 42.574 41.087,42.942 41.002,42.942 40.689 C 42.942 40.377,43.311 40.292,44.665 40.292 C 46.020 40.292,46.388 40.207,46.388 39.894 C 46.388 39.564,46.892 39.496,49.329 39.496 C 52.047 39.496,52.280 39.456,52.408 38.966 C 52.539 38.467,52.770 38.436,56.360 38.436 C 59.572 38.436,60.172 38.373,60.172 38.038 C 60.172 37.703,60.776 37.641,64.016 37.641 C 67.256 37.641,67.860 37.578,67.860 37.243 C 67.860 36.907,68.478 36.846,71.836 36.846 C 75.193 36.846,75.812 36.784,75.812 36.448 C 75.812 36.115,76.371 36.050,79.258 36.050 C 82.527 36.050,82.704 36.023,82.704 35.520 C 82.704 35.014,82.880 34.990,86.547 34.990 C 89.787 34.990,90.391 34.928,90.391 34.592 C 90.391 34.257,91.009 34.195,94.367 34.195 C 97.725 34.195,98.343 34.133,98.343 33.797 C 98.343 33.462,98.947 33.400,102.187 33.400 C 105.427 33.400,106.030 33.337,106.030 33.002 C 106.030 32.669,106.590 32.604,109.476 32.604 C 112.746 32.604,112.922 32.577,112.922 32.074 C 112.922 31.568,113.099 31.544,116.899 31.544 C 120.256 31.544,120.875 31.482,120.875 31.146 C 120.875 30.811,121.479 30.749,124.718 30.749 C 127.958 30.749,128.562 30.686,128.562 30.351 C 128.562 30.016,129.166 29.954,132.406 29.954 C 136.072 29.954,136.249 29.929,136.249 29.423 C 136.249 28.917,136.426 28.893,140.225 28.893 C 143.583 28.893,144.201 28.831,144.201 28.496 C 144.201 28.163,144.761 28.098,147.647 28.098 C 150.534 28.098,151.093 28.034,151.093 27.700 C 151.093 27.365,151.697 27.303,154.937 27.303 C 158.177 27.303,158.781 27.240,158.781 26.905 C 158.781 26.569,159.399 26.508,162.757 26.508 C 166.556 26.508,166.733 26.484,166.733 25.977 C 166.733 25.472,166.910 25.447,170.577 25.447 C 173.816 25.447,174.420 25.385,174.420 25.050 C 174.420 24.717,174.980 24.652,177.866 24.652 C 180.753 24.652,181.312 24.588,181.312 24.254 C 181.312 23.919,181.931 23.857,185.288 23.857 C 188.646 23.857,189.264 23.795,189.264 23.459 C 189.264 23.124,189.868 23.062,193.108 23.062 C 196.775 23.062,196.952 23.037,196.952 22.531 C 196.952 22.026,197.128 22.001,200.795 22.001 C 204.035 22.001,204.639 21.939,204.639 21.604 C 204.639 21.268,205.257 21.206,208.615 21.206 C 211.973 21.206,212.591 21.144,212.591 20.808 C 212.591 20.475,213.151 20.411,216.037 20.411 C 218.923 20.411,219.483 20.346,219.483 20.013 C 219.483 19.678,220.087 19.616,223.327 19.616 C 226.994 19.616,227.170 19.591,227.170 19.085 C 227.170 18.579,227.347 18.555,231.146 18.555 C 234.504 18.555,235.123 18.493,235.123 18.158 C 235.123 17.823,235.726 17.760,238.966 17.760 C 242.206 17.760,242.810 17.698,242.810 17.362 C 242.810 17.029,243.369 16.965,246.256 16.965 C 249.525 16.965,249.702 16.938,249.702 16.435 C 249.702 15.928,249.879 15.905,253.678 15.905 C 257.036 15.905,257.654 15.843,257.654 15.507 C 257.654 15.172,258.258 15.109,261.498 15.109 C 264.738 15.109,265.341 15.047,265.341 14.712 C 265.341 14.377,265.945 14.314,269.185 14.314 C 272.425 14.314,273.028 14.252,273.028 13.917 C 273.028 13.581,273.647 13.519,277.005 13.519 C 280.804 13.519,280.981 13.495,280.981 12.989 C 280.981 12.486,281.157 12.459,284.427 12.459 C 287.313 12.459,287.873 12.394,287.873 12.061 C 287.873 11.726,288.477 11.663,291.716 11.663 C 294.956 11.663,295.560 11.601,295.560 11.266 C 295.560 10.930,296.178 10.868,299.536 10.868 C 302.894 10.868,303.512 10.806,303.512 10.471 C 303.512 10.135,304.116 10.073,307.356 10.073 C 311.023 10.073,311.199 10.049,311.199 9.543 C 311.199 9.040,311.376 9.013,314.645 9.013 C 317.532 9.013,318.091 8.948,318.091 8.615 C 318.091 8.279,318.710 8.217,322.068 8.217 C 325.425 8.217,326.044 8.156,326.044 7.820 C 326.044 7.485,326.648 7.422,329.887 7.422 C 333.127 7.422,333.731 7.360,333.731 7.025 C 333.731 6.689,334.337 6.627,337.599 6.627 C 341.245 6.627,341.476 6.596,341.606 6.097 C 341.737 5.598,341.968 5.567,345.558 5.567 C 348.770 5.567,349.370 5.504,349.370 5.169 C 349.370 4.836,349.930 4.771,352.816 4.771 C 355.703 4.771,356.262 4.707,356.262 4.374 C 356.262 4.039,356.866 3.976,360.106 3.976 C 363.773 3.976,363.950 3.952,363.950 3.446 C 363.950 2.939,364.126 2.916,367.926 2.916 C 371.283 2.916,371.902 2.854,371.902 2.518 C 371.902 2.183,372.506 2.121,375.746 2.121 C 378.985 2.121,379.589 2.058,379.589 1.723 C 379.589 1.387,380.208 1.325,383.565 1.325 L 387.541 1.325 387.541 0.663 L 387.541 0.000 193.771 0.000 L 0.000 0.000 0.000 46.521 M390.987 0.663 C 390.987 1.281,391.076 1.325,392.313 1.325 C 393.314 1.325,393.638 1.423,393.638 1.723 C 393.638 1.942,393.817 2.121,394.036 2.121 C 394.254 2.121,394.433 2.300,394.433 2.518 C 394.433 2.796,394.713 2.916,395.361 2.916 C 396.112 2.916,396.289 3.017,396.289 3.446 C 396.289 3.741,396.466 3.976,396.687 3.976 C 396.905 3.976,397.084 4.155,397.084 4.374 C 397.084 4.592,397.263 4.771,397.482 4.771 C 397.759 4.771,397.879 5.051,397.879 5.699 C 397.879 6.347,397.999 6.627,398.277 6.627 C 398.572 6.627,398.675 6.936,398.675 7.820 C 398.675 8.915,398.729 9.013,399.337 9.013 L 400.000 9.013 400.000 4.506 L 400.000 0.000 395.494 0.000 L 390.987 0.000 390.987 0.663 M398.675 14.844 C 398.675 15.846,398.577 16.170,398.277 16.170 C 398.058 16.170,397.879 16.349,397.879 16.567 C 397.879 16.786,397.700 16.965,397.482 16.965 C 397.217 16.965,397.084 17.230,397.084 17.760 C 397.084 18.290,396.952 18.555,396.687 18.555 C 396.466 18.555,396.289 18.791,396.289 19.085 C 396.289 19.439,396.112 19.616,395.759 19.616 C 395.346 19.616,395.229 19.792,395.229 20.411 C 395.229 20.941,395.096 21.206,394.831 21.206 C 394.610 21.206,394.433 21.442,394.433 21.736 C 394.433 22.031,394.257 22.266,394.036 22.266 C 393.817 22.266,393.638 22.445,393.638 22.664 C 393.638 22.885,393.403 23.062,393.108 23.062 C 392.696 23.062,392.578 23.238,392.578 23.857 C 392.578 24.387,392.445 24.652,392.180 24.652 C 391.959 24.652,391.783 24.888,391.783 25.182 C 391.783 25.477,391.606 25.712,391.385 25.712 C 391.166 25.712,390.987 25.891,390.987 26.110 C 390.987 26.329,390.808 26.508,390.590 26.508 C 390.328 26.508,390.192 26.769,390.192 27.272 C 390.192 27.813,390.038 28.077,389.662 28.175 C 389.370 28.251,389.132 28.504,389.132 28.736 C 389.132 28.968,388.953 29.158,388.734 29.158 C 388.469 29.158,388.337 29.423,388.337 29.954 C 388.337 30.484,388.204 30.749,387.939 30.749 C 387.720 30.749,387.541 30.928,387.541 31.146 C 387.541 31.365,387.362 31.544,387.144 31.544 C 386.923 31.544,386.746 31.780,386.746 32.074 C 386.746 32.428,386.569 32.604,386.216 32.604 C 385.804 32.604,385.686 32.781,385.686 33.400 C 385.686 33.930,385.553 34.195,385.288 34.195 C 385.067 34.195,384.891 34.430,384.891 34.725 C 384.891 35.020,384.714 35.255,384.493 35.255 C 384.228 35.255,384.095 35.520,384.095 36.050 C 384.095 36.581,383.963 36.846,383.698 36.846 C 383.479 36.846,383.300 37.025,383.300 37.243 C 383.300 37.464,383.065 37.641,382.770 37.641 C 382.417 37.641,382.240 37.818,382.240 38.171 C 382.240 38.466,382.063 38.701,381.842 38.701 C 381.577 38.701,381.445 38.966,381.445 39.496 C 381.445 40.027,381.312 40.292,381.047 40.292 C 380.828 40.292,380.649 40.457,380.649 40.658 C 380.649 40.860,380.411 41.087,380.119 41.164 C 379.733 41.265,379.589 41.525,379.589 42.122 C 379.589 42.675,379.459 42.942,379.192 42.942 C 378.973 42.942,378.794 43.121,378.794 43.340 C 378.794 43.559,378.615 43.738,378.396 43.738 C 378.175 43.738,377.999 43.973,377.999 44.268 C 377.999 44.562,377.822 44.798,377.601 44.798 C 377.336 44.798,377.203 45.063,377.203 45.593 C 377.203 46.212,377.086 46.388,376.673 46.388 C 376.379 46.388,376.143 46.565,376.143 46.786 C 376.143 47.005,375.964 47.184,375.746 47.184 C 375.468 47.184,375.348 47.463,375.348 48.111 C 375.348 48.759,375.228 49.039,374.950 49.039 C 374.732 49.039,374.553 49.218,374.553 49.437 C 374.553 49.655,374.374 49.834,374.155 49.834 C 373.936 49.834,373.757 49.999,373.757 50.201 C 373.757 50.403,373.519 50.630,373.227 50.706 C 372.841 50.807,372.697 51.068,372.697 51.665 C 372.697 52.217,372.567 52.485,372.300 52.485 C 372.081 52.485,371.902 52.664,371.902 52.883 C 371.902 53.101,371.723 53.280,371.504 53.280 C 371.227 53.280,371.107 53.560,371.107 54.208 C 371.107 54.856,370.987 55.136,370.709 55.136 C 370.490 55.136,370.311 55.315,370.311 55.533 C 370.311 55.754,370.076 55.931,369.781 55.931 C 369.487 55.931,369.251 56.108,369.251 56.329 C 369.251 56.547,369.072 56.726,368.854 56.726 C 368.576 56.726,368.456 57.006,368.456 57.654 C 368.456 58.302,368.336 58.582,368.058 58.582 C 367.840 58.582,367.661 58.761,367.661 58.979 C 367.661 59.200,367.425 59.377,367.131 59.377 C 366.836 59.377,366.600 59.554,366.600 59.775 C 366.600 59.993,366.421 60.172,366.203 60.172 C 365.925 60.172,365.805 60.452,365.805 61.100 C 365.805 61.748,365.685 62.028,365.408 62.028 C 365.189 62.028,365.010 62.207,365.010 62.425 C 365.010 62.644,364.831 62.823,364.612 62.823 C 364.335 62.823,364.215 63.103,364.215 63.751 C 364.215 64.502,364.114 64.679,363.685 64.679 C 363.390 64.679,363.154 64.855,363.154 65.076 C 363.154 65.295,362.975 65.474,362.757 65.474 C 362.538 65.474,362.359 65.653,362.359 65.871 C 362.359 66.090,362.180 66.269,361.962 66.269 C 361.684 66.269,361.564 66.549,361.564 67.197 C 361.564 67.845,361.444 68.125,361.166 68.125 C 360.948 68.125,360.769 68.304,360.769 68.522 C 360.769 68.743,360.533 68.920,360.239 68.920 C 359.809 68.920,359.708 69.097,359.708 69.848 C 359.708 70.496,359.589 70.775,359.311 70.775 C 359.092 70.775,358.913 70.954,358.913 71.173 C 358.913 71.392,358.734 71.571,358.516 71.571 C 358.297 71.571,358.118 71.750,358.118 71.968 C 358.118 72.187,357.939 72.366,357.720 72.366 C 357.443 72.366,357.323 72.646,357.323 73.294 C 357.323 74.045,357.222 74.221,356.793 74.221 C 356.498 74.221,356.262 74.398,356.262 74.619 C 356.262 74.838,356.083 75.017,355.865 75.017 C 355.600 75.017,355.467 75.282,355.467 75.812 C 355.467 76.342,355.335 76.607,355.070 76.607 C 354.849 76.607,354.672 76.843,354.672 77.137 C 354.672 77.491,354.495 77.667,354.142 77.667 C 353.847 77.667,353.612 77.844,353.612 78.065 C 353.612 78.284,353.433 78.463,353.214 78.463 C 352.949 78.463,352.816 78.728,352.816 79.258 C 352.816 79.788,352.684 80.053,352.419 80.053 C 352.198 80.053,352.021 80.289,352.021 80.583 C 352.021 80.878,351.844 81.113,351.624 81.113 C 351.359 81.113,351.226 81.378,351.226 81.909 C 351.226 82.527,351.108 82.704,350.696 82.704 C 350.342 82.704,350.166 82.880,350.166 83.234 C 350.166 83.528,349.989 83.764,349.768 83.764 C 349.549 83.764,349.370 83.943,349.370 84.162 C 349.370 84.380,349.192 84.559,348.973 84.559 C 348.708 84.559,348.575 84.824,348.575 85.355 C 348.575 85.885,348.443 86.150,348.178 86.150 C 347.957 86.150,347.780 86.385,347.780 86.680 C 347.780 87.033,347.603 87.210,347.250 87.210 C 346.955 87.210,346.720 87.387,346.720 87.608 C 346.720 87.826,346.541 88.005,346.322 88.005 C 346.057 88.005,345.924 88.270,345.924 88.801 C 345.924 89.331,345.792 89.596,345.527 89.596 C 345.306 89.596,345.129 89.831,345.129 90.126 C 345.129 90.420,344.953 90.656,344.732 90.656 C 344.467 90.656,344.334 90.921,344.334 91.451 C 344.334 92.070,344.216 92.247,343.804 92.247 C 343.450 92.247,343.274 92.423,343.274 92.777 C 343.274 93.071,343.097 93.307,342.876 93.307 C 342.657 93.307,342.478 93.486,342.478 93.704 C 342.478 93.923,342.300 94.102,342.081 94.102 C 341.816 94.102,341.683 94.367,341.683 94.897 C 341.683 95.448,341.553 95.693,341.261 95.693 C 341.028 95.693,340.776 95.931,340.700 96.223 C 340.623 96.514,340.396 96.753,340.194 96.753 C 339.964 96.753,339.828 97.048,339.828 97.548 C 339.828 98.078,339.695 98.343,339.430 98.343 C 339.211 98.343,339.032 98.522,339.032 98.741 C 339.032 98.960,338.854 99.139,338.635 99.139 C 338.414 99.139,338.237 99.374,338.237 99.669 C 338.237 100.022,338.061 100.199,337.707 100.199 C 337.295 100.199,337.177 100.376,337.177 100.994 C 337.177 101.524,337.044 101.789,336.779 101.789 C 336.561 101.789,336.382 101.968,336.382 102.187 C 336.382 102.406,336.203 102.584,335.984 102.584 C 335.706 102.584,335.586 102.864,335.586 103.512 C 335.586 104.160,335.467 104.440,335.189 104.440 C 334.970 104.440,334.791 104.619,334.791 104.838 C 334.791 105.059,334.556 105.235,334.261 105.235 C 333.908 105.235,333.731 105.412,333.731 105.765 C 333.731 106.060,333.554 106.296,333.333 106.296 C 333.068 106.296,332.936 106.561,332.936 107.091 C 332.936 107.621,332.803 107.886,332.538 107.886 C 332.319 107.886,332.140 108.065,332.140 108.284 C 332.140 108.502,331.962 108.681,331.743 108.681 C 331.465 108.681,331.345 108.961,331.345 109.609 C 331.345 110.360,331.244 110.537,330.815 110.537 C 330.521 110.537,330.285 110.713,330.285 110.934 C 330.285 111.153,330.106 111.332,329.887 111.332 C 329.669 111.332,329.490 111.511,329.490 111.730 C 329.490 111.948,329.311 112.127,329.092 112.127 C 328.814 112.127,328.694 112.407,328.694 113.055 C 328.694 113.806,328.594 113.983,328.164 113.983 C 327.870 113.983,327.634 114.159,327.634 114.380 C 327.634 114.599,327.455 114.778,327.237 114.778 C 326.959 114.778,326.839 115.058,326.839 115.706 C 326.839 116.354,326.719 116.634,326.441 116.634 C 326.223 116.634,326.044 116.812,326.044 117.031 C 326.044 117.250,325.865 117.429,325.646 117.429 C 325.427 117.429,325.249 117.608,325.249 117.826 C 325.249 118.047,325.013 118.224,324.718 118.224 C 324.289 118.224,324.188 118.401,324.188 119.152 C 324.188 119.800,324.068 120.080,323.791 120.080 C 323.572 120.080,323.393 120.258,323.393 120.477 C 323.393 120.696,323.214 120.875,322.995 120.875 C 322.777 120.875,322.598 121.054,322.598 121.272 C 322.598 121.491,322.419 121.670,322.200 121.670 C 321.922 121.670,321.803 121.950,321.803 122.598 C 321.803 123.349,321.702 123.526,321.272 123.526 C 320.978 123.526,320.742 123.702,320.742 123.923 C 320.742 124.142,320.563 124.321,320.345 124.321 C 320.067 124.321,319.947 124.601,319.947 125.249 C 319.947 125.896,319.827 126.176,319.549 126.176 C 319.331 126.176,319.152 126.355,319.152 126.574 C 319.152 126.793,318.973 126.972,318.754 126.972 C 318.535 126.972,318.357 127.150,318.357 127.369 C 318.357 127.590,318.121 127.767,317.826 127.767 C 317.397 127.767,317.296 127.943,317.296 128.694 C 317.296 129.342,317.176 129.622,316.899 129.622 C 316.680 129.622,316.501 129.801,316.501 130.020 C 316.501 130.239,316.322 130.417,316.103 130.417 C 315.826 130.417,315.706 130.697,315.706 131.345 C 315.706 132.096,315.605 132.273,315.176 132.273 C 314.881 132.273,314.645 132.450,314.645 132.671 C 314.645 132.889,314.467 133.068,314.248 133.068 C 314.029 133.068,313.850 133.247,313.850 133.466 C 313.850 133.685,313.671 133.863,313.453 133.863 C 313.175 133.863,313.055 134.143,313.055 134.791 C 313.055 135.439,312.935 135.719,312.657 135.719 C 312.439 135.719,312.260 135.898,312.260 136.117 C 312.260 136.338,312.024 136.514,311.730 136.514 C 311.317 136.514,311.199 136.691,311.199 137.309 C 311.199 137.840,311.067 138.105,310.802 138.105 C 310.581 138.105,310.404 138.340,310.404 138.635 C 310.404 138.929,310.228 139.165,310.007 139.165 C 309.788 139.165,309.609 139.344,309.609 139.563 C 309.609 139.781,309.430 139.960,309.211 139.960 C 308.934 139.960,308.814 140.240,308.814 140.888 C 308.814 141.639,308.713 141.816,308.284 141.816 C 307.989 141.816,307.753 141.992,307.753 142.213 C 307.753 142.432,307.575 142.611,307.356 142.611 C 307.091 142.611,306.958 142.876,306.958 143.406 C 306.958 143.936,306.826 144.201,306.561 144.201 C 306.340 144.201,306.163 144.437,306.163 144.732 C 306.163 145.026,305.986 145.262,305.765 145.262 C 305.547 145.262,305.368 145.441,305.368 145.659 C 305.368 145.880,305.132 146.057,304.838 146.057 C 304.425 146.057,304.307 146.234,304.307 146.852 C 304.307 147.382,304.175 147.647,303.910 147.647 C 303.689 147.647,303.512 147.883,303.512 148.178 C 303.512 148.472,303.336 148.708,303.115 148.708 C 302.896 148.708,302.717 148.887,302.717 149.105 C 302.717 149.326,302.481 149.503,302.187 149.503 C 301.775 149.503,301.657 149.680,301.657 150.298 C 301.657 150.828,301.524 151.093,301.259 151.093 C 301.038 151.093,300.861 151.329,300.861 151.624 C 300.861 151.918,300.685 152.154,300.464 152.154 C 300.199 152.154,300.066 152.419,300.066 152.949 C 300.066 153.479,299.934 153.744,299.669 153.744 C 299.448 153.744,299.271 153.980,299.271 154.274 C 299.271 154.628,299.094 154.805,298.741 154.805 C 298.446 154.805,298.211 154.981,298.211 155.202 C 298.211 155.421,298.032 155.600,297.813 155.600 C 297.548 155.600,297.416 155.865,297.416 156.395 C 297.416 156.925,297.283 157.190,297.018 157.190 C 296.797 157.190,296.620 157.426,296.620 157.720 C 296.620 158.015,296.444 158.250,296.223 158.250 C 295.958 158.250,295.825 158.516,295.825 159.046 C 295.825 159.664,295.707 159.841,295.295 159.841 C 295.000 159.841,294.765 160.018,294.765 160.239 C 294.765 160.457,294.586 160.636,294.367 160.636 C 294.146 160.636,293.970 160.872,293.970 161.166 C 293.970 161.461,293.793 161.696,293.572 161.696 C 293.307 161.696,293.174 161.962,293.174 162.492 C 293.174 163.022,293.042 163.287,292.777 163.287 C 292.558 163.287,292.379 163.466,292.379 163.685 C 292.379 163.905,292.143 164.082,291.849 164.082 C 291.420 164.082,291.319 164.259,291.319 165.010 C 291.319 165.658,291.199 165.938,290.921 165.938 C 290.702 165.938,290.524 166.117,290.524 166.335 C 290.524 166.554,290.345 166.733,290.126 166.733 C 289.905 166.733,289.728 166.969,289.728 167.263 C 289.728 167.617,289.552 167.793,289.198 167.793 C 288.786 167.793,288.668 167.970,288.668 168.588 C 288.668 169.119,288.535 169.384,288.270 169.384 C 288.052 169.384,287.873 169.563,287.873 169.781 C 287.873 170.000,287.694 170.179,287.475 170.179 C 287.197 170.179,287.078 170.459,287.078 171.107 C 287.078 171.755,286.958 172.034,286.680 172.034 C 286.461 172.034,286.282 172.213,286.282 172.432 C 286.282 172.653,286.047 172.830,285.752 172.830 C 285.458 172.830,285.222 173.006,285.222 173.227 C 285.222 173.446,285.043 173.625,284.824 173.625 C 284.547 173.625,284.427 173.905,284.427 174.553 C 284.427 175.201,284.307 175.480,284.029 175.480 C 283.810 175.480,283.632 175.659,283.632 175.878 C 283.632 176.097,283.453 176.276,283.234 176.276 C 283.013 176.276,282.836 176.511,282.836 176.806 C 282.836 177.159,282.660 177.336,282.306 177.336 C 281.894 177.336,281.776 177.513,281.776 178.131 C 281.776 178.661,281.643 178.926,281.378 178.926 C 281.160 178.926,280.981 179.105,280.981 179.324 C 280.981 179.543,280.802 179.722,280.583 179.722 C 280.305 179.722,280.186 180.001,280.186 180.649 C 280.186 181.297,280.066 181.577,279.788 181.577 C 279.569 181.577,279.390 181.756,279.390 181.975 C 279.390 182.196,279.155 182.372,278.860 182.372 C 278.566 182.372,278.330 182.549,278.330 182.770 C 278.330 182.989,278.151 183.168,277.932 183.168 C 277.655 183.168,277.535 183.447,277.535 184.095 C 277.535 184.743,277.415 185.023,277.137 185.023 C 276.918 185.023,276.740 185.202,276.740 185.421 C 276.740 185.639,276.561 185.818,276.342 185.818 C 276.064 185.818,275.944 186.098,275.944 186.746 C 275.944 187.497,275.843 187.674,275.414 187.674 C 275.120 187.674,274.884 187.851,274.884 188.072 C 274.884 188.290,274.705 188.469,274.486 188.469 C 274.268 188.469,274.089 188.648,274.089 188.867 C 274.089 189.085,273.910 189.264,273.691 189.264 C 273.413 189.264,273.294 189.544,273.294 190.192 C 273.294 190.943,273.193 191.120,272.763 191.120 C 272.469 191.120,272.233 191.297,272.233 191.518 C 272.233 191.736,272.054 191.915,271.836 191.915 C 271.558 191.915,271.438 192.195,271.438 192.843 C 271.438 193.491,271.318 193.771,271.040 193.771 C 270.822 193.771,270.643 193.950,270.643 194.168 C 270.643 194.387,270.464 194.566,270.245 194.566 C 270.027 194.566,269.848 194.745,269.848 194.964 C 269.848 195.184,269.612 195.361,269.317 195.361 C 268.888 195.361,268.787 195.538,268.787 196.289 C 268.787 196.937,268.667 197.217,268.390 197.217 C 268.171 197.217,267.992 197.396,267.992 197.614 C 267.992 197.833,267.813 198.012,267.594 198.012 C 267.329 198.012,267.197 198.277,267.197 198.807 C 267.197 199.337,267.064 199.602,266.799 199.602 C 266.578 199.602,266.402 199.838,266.402 200.133 C 266.402 200.486,266.225 200.663,265.871 200.663 C 265.577 200.663,265.341 200.839,265.341 201.060 C 265.341 201.279,265.162 201.458,264.944 201.458 C 264.666 201.458,264.546 201.738,264.546 202.386 C 264.546 203.034,264.426 203.313,264.148 203.313 C 263.930 203.313,263.751 203.492,263.751 203.711 C 263.751 203.930,263.572 204.109,263.353 204.109 C 263.088 204.109,262.956 204.374,262.956 204.904 C 262.956 205.522,262.838 205.699,262.425 205.699 C 262.072 205.699,261.895 205.876,261.895 206.229 C 261.895 206.524,261.719 206.759,261.498 206.759 C 261.279 206.759,261.100 206.938,261.100 207.157 C 261.100 207.376,260.921 207.555,260.702 207.555 C 260.441 207.555,260.305 207.816,260.305 208.319 C 260.305 208.860,260.150 209.124,259.775 209.222 C 259.483 209.298,259.245 209.551,259.245 209.783 C 259.245 210.015,259.066 210.205,258.847 210.205 C 258.582 210.205,258.449 210.471,258.449 211.001 C 258.449 211.531,258.317 211.796,258.052 211.796 C 257.833 211.796,257.654 211.975,257.654 212.194 C 257.654 212.412,257.475 212.591,257.256 212.591 C 256.979 212.591,256.859 212.871,256.859 213.519 C 256.859 214.270,256.758 214.447,256.329 214.447 C 256.034 214.447,255.799 214.623,255.799 214.844 C 255.799 215.063,255.620 215.242,255.401 215.242 C 255.180 215.242,255.003 215.478,255.003 215.772 C 255.003 216.067,254.827 216.302,254.606 216.302 C 254.341 216.302,254.208 216.567,254.208 217.097 C 254.208 217.628,254.076 217.893,253.810 217.893 C 253.592 217.893,253.413 218.058,253.413 218.259 C 253.413 218.461,253.174 218.688,252.883 218.765 C 252.591 218.841,252.353 219.093,252.353 219.326 C 252.353 219.558,252.174 219.748,251.955 219.748 C 251.690 219.748,251.557 220.013,251.557 220.543 C 251.557 221.074,251.425 221.339,251.160 221.339 C 250.941 221.339,250.762 221.518,250.762 221.736 C 250.762 221.955,250.583 222.134,250.364 222.134 C 250.144 222.134,249.967 222.369,249.967 222.664 C 249.967 223.017,249.790 223.194,249.437 223.194 C 249.142 223.194,248.907 223.371,248.907 223.592 C 248.907 223.810,248.728 223.989,248.509 223.989 C 248.290 223.989,248.111 224.168,248.111 224.387 C 248.111 224.606,247.932 224.785,247.714 224.785 C 247.493 224.785,247.316 225.020,247.316 225.315 C 247.316 225.668,247.139 225.845,246.786 225.845 C 246.491 225.845,246.256 226.022,246.256 226.243 C 246.256 226.461,246.077 226.640,245.858 226.640 C 245.593 226.640,245.461 226.905,245.461 227.435 C 245.461 227.966,245.328 228.231,245.063 228.231 C 244.842 228.231,244.665 228.466,244.665 228.761 C 244.665 229.055,244.489 229.291,244.268 229.291 C 244.049 229.291,243.870 229.470,243.870 229.689 C 243.870 229.909,243.634 230.086,243.340 230.086 C 243.045 230.086,242.810 230.263,242.810 230.484 C 242.810 230.702,242.631 230.881,242.412 230.881 C 242.194 230.881,242.015 231.060,242.015 231.279 C 242.015 231.498,241.836 231.677,241.617 231.677 C 241.396 231.677,241.219 231.912,241.219 232.207 C 241.219 232.501,241.043 232.737,240.822 232.737 C 240.603 232.737,240.424 232.916,240.424 233.135 C 240.424 233.412,240.144 233.532,239.496 233.532 C 238.848 233.532,238.569 233.652,238.569 233.930 C 238.569 234.148,238.390 234.327,238.171 234.327 C 237.952 234.327,237.773 234.506,237.773 234.725 C 237.773 234.944,237.594 235.123,237.376 235.123 C 237.155 235.123,236.978 235.358,236.978 235.653 C 236.978 236.006,236.801 236.183,236.448 236.183 C 236.153 236.183,235.918 236.360,235.918 236.581 C 235.918 236.799,235.739 236.978,235.520 236.978 C 235.302 236.978,235.123 237.157,235.123 237.376 C 235.123 237.594,234.944 237.773,234.725 237.773 C 234.504 237.773,234.327 238.009,234.327 238.304 C 234.327 238.733,234.151 238.834,233.400 238.834 C 232.752 238.834,232.472 238.954,232.472 239.231 C 232.472 239.450,232.293 239.629,232.074 239.629 C 231.856 239.629,231.677 239.808,231.677 240.027 C 231.677 240.245,231.498 240.424,231.279 240.424 C 231.060 240.424,230.881 240.603,230.881 240.822 C 230.881 241.099,230.602 241.219,229.954 241.219 C 229.203 241.219,229.026 241.320,229.026 241.750 C 229.026 242.044,228.849 242.280,228.628 242.280 C 228.410 242.280,228.231 242.459,228.231 242.677 C 228.231 242.896,228.052 243.075,227.833 243.075 C 227.614 243.075,227.435 243.254,227.435 243.472 C 227.435 243.750,227.156 243.870,226.508 243.870 C 225.860 243.870,225.580 243.990,225.580 244.268 C 225.580 244.486,225.401 244.665,225.182 244.665 C 224.961 244.665,224.785 244.901,224.785 245.195 C 224.785 245.625,224.608 245.726,223.857 245.726 C 223.209 245.726,222.929 245.846,222.929 246.123 C 222.929 246.342,222.750 246.521,222.531 246.521 C 222.313 246.521,222.134 246.700,222.134 246.918 C 222.134 247.196,221.854 247.316,221.206 247.316 C 220.558 247.316,220.278 247.436,220.278 247.714 C 220.278 247.979,220.013 248.111,219.483 248.111 C 218.865 248.111,218.688 248.229,218.688 248.641 C 218.688 248.936,218.511 249.172,218.290 249.172 C 218.072 249.172,217.893 249.351,217.893 249.569 C 217.893 249.847,217.613 249.967,216.965 249.967 C 216.317 249.967,216.037 250.087,216.037 250.364 C 216.037 250.630,215.772 250.762,215.242 250.762 C 214.623 250.762,214.447 250.880,214.447 251.292 C 214.447 251.721,214.270 251.822,213.519 251.822 C 212.871 251.822,212.591 251.942,212.591 252.220 C 212.591 252.485,212.326 252.618,211.796 252.618 C 211.266 252.618,211.001 252.750,211.001 253.015 C 211.001 253.293,210.721 253.413,210.073 253.413 C 209.425 253.413,209.145 253.533,209.145 253.810 C 209.145 254.078,208.877 254.208,208.325 254.208 C 207.728 254.208,207.467 254.352,207.366 254.738 C 207.254 255.167,207.005 255.268,206.066 255.268 C 205.210 255.268,204.904 255.373,204.904 255.666 C 204.904 255.944,204.624 256.064,203.976 256.064 C 203.328 256.064,203.048 256.184,203.048 256.461 C 203.048 256.762,202.724 256.859,201.723 256.859 C 200.722 256.859,200.398 256.956,200.398 257.256 C 200.398 257.551,200.088 257.654,199.205 257.654 C 198.189 257.654,198.012 257.733,198.012 258.184 C 198.012 258.644,197.835 258.714,196.687 258.714 C 195.685 258.714,195.361 258.812,195.361 259.112 C 195.361 259.412,195.037 259.510,194.036 259.510 C 193.034 259.510,192.710 259.607,192.710 259.907 C 192.710 260.208,192.386 260.305,191.385 260.305 C 190.384 260.305,190.060 260.402,190.060 260.702 C 190.060 261.023,189.647 261.100,187.939 261.100 C 185.995 261.100,185.818 261.144,185.818 261.630 C 185.818 262.106,185.642 262.160,184.095 262.160 C 182.741 262.160,182.372 262.245,182.372 262.558 C 182.372 262.885,181.901 262.956,179.722 262.956 C 177.542 262.956,177.071 263.026,177.071 263.353 C 177.071 263.688,176.467 263.751,173.227 263.751 L 169.384 263.751 169.384 264.414 L 169.384 265.076 284.692 265.076 L 400.000 265.076 400.000 139.298 L 400.000 13.519 399.337 13.519 C 398.719 13.519,398.675 13.607,398.675 14.844 M0.000 180.384 L 0.000 265.076 75.547 265.076 L 151.093 265.076 151.093 264.414 L 151.093 263.751 147.250 263.751 C 144.010 263.751,143.406 263.688,143.406 263.353 C 143.406 263.026,142.935 262.956,140.755 262.956 C 138.576 262.956,138.105 262.885,138.105 262.558 C 138.105 262.245,137.737 262.160,136.382 262.160 C 134.835 262.160,134.659 262.106,134.659 261.630 C 134.659 261.154,134.482 261.100,132.936 261.100 C 131.581 261.100,131.213 261.015,131.213 260.702 C 131.213 260.390,130.845 260.305,129.490 260.305 C 128.135 260.305,127.767 260.220,127.767 259.907 C 127.767 259.607,127.443 259.510,126.441 259.510 C 125.440 259.510,125.116 259.412,125.116 259.112 C 125.116 258.812,124.792 258.714,123.791 258.714 C 122.642 258.714,122.465 258.644,122.465 258.184 C 122.465 257.725,122.288 257.654,121.140 257.654 C 120.138 257.654,119.814 257.557,119.814 257.256 C 119.814 256.962,119.505 256.859,118.622 256.859 C 117.738 256.859,117.429 256.756,117.429 256.461 C 117.429 256.184,117.149 256.064,116.501 256.064 C 115.853 256.064,115.573 255.944,115.573 255.666 C 115.573 255.405,115.312 255.268,114.809 255.268 C 114.268 255.268,114.004 255.114,113.906 254.738 C 113.793 254.305,113.544 254.208,112.550 254.208 C 111.644 254.208,111.332 254.106,111.332 253.810 C 111.332 253.533,111.052 253.413,110.404 253.413 C 109.756 253.413,109.476 253.293,109.476 253.015 C 109.476 252.750,109.211 252.618,108.681 252.618 C 108.151 252.618,107.886 252.485,107.886 252.220 C 107.886 251.942,107.606 251.822,106.958 251.822 C 106.207 251.822,106.030 251.721,106.030 251.292 C 106.030 250.880,105.854 250.762,105.235 250.762 C 104.705 250.762,104.440 250.630,104.440 250.364 C 104.440 250.144,104.204 249.967,103.910 249.967 C 103.615 249.967,103.380 249.790,103.380 249.569 C 103.380 249.304,103.115 249.172,102.584 249.172 C 101.966 249.172,101.789 249.054,101.789 248.641 C 101.789 248.212,101.613 248.111,100.861 248.111 C 100.214 248.111,99.934 247.991,99.934 247.714 C 99.934 247.495,99.755 247.316,99.536 247.316 C 99.317 247.316,99.139 247.137,99.139 246.918 C 99.139 246.641,98.859 246.521,98.211 246.521 C 97.563 246.521,97.283 246.401,97.283 246.123 C 97.283 245.905,97.104 245.726,96.885 245.726 C 96.664 245.726,96.488 245.490,96.488 245.195 C 96.488 244.783,96.311 244.665,95.693 244.665 C 95.162 244.665,94.897 244.533,94.897 244.268 C 94.897 244.047,94.662 243.870,94.367 243.870 C 94.073 243.870,93.837 243.693,93.837 243.472 C 93.837 243.207,93.572 243.075,93.042 243.075 C 92.512 243.075,92.247 242.942,92.247 242.677 C 92.247 242.459,92.082 242.280,91.880 242.280 C 91.678 242.280,91.451 242.041,91.374 241.750 C 91.274 241.363,91.013 241.219,90.416 241.219 C 89.864 241.219,89.596 241.089,89.596 240.822 C 89.596 240.603,89.417 240.424,89.198 240.424 C 88.979 240.424,88.801 240.245,88.801 240.027 C 88.801 239.808,88.622 239.629,88.403 239.629 C 88.184 239.629,88.005 239.450,88.005 239.231 C 88.005 239.010,87.770 238.834,87.475 238.834 C 87.122 238.834,86.945 238.657,86.945 238.304 C 86.945 237.891,86.768 237.773,86.150 237.773 C 85.620 237.773,85.355 237.641,85.355 237.376 C 85.355 237.155,85.119 236.978,84.824 236.978 C 84.530 236.978,84.294 236.801,84.294 236.581 C 84.294 236.362,84.115 236.183,83.897 236.183 C 83.676 236.183,83.499 235.947,83.499 235.653 C 83.499 235.358,83.322 235.123,83.101 235.123 C 82.883 235.123,82.704 234.944,82.704 234.725 C 82.704 234.506,82.525 234.327,82.306 234.327 C 82.087 234.327,81.909 234.148,81.909 233.930 C 81.909 233.709,81.673 233.532,81.378 233.532 C 81.084 233.532,80.848 233.355,80.848 233.135 C 80.848 232.916,80.669 232.737,80.451 232.737 C 80.230 232.737,80.053 232.501,80.053 232.207 C 80.053 231.912,79.876 231.677,79.655 231.677 C 79.437 231.677,79.258 231.498,79.258 231.279 C 79.258 231.060,79.079 230.881,78.860 230.881 C 78.641 230.881,78.463 230.702,78.463 230.484 C 78.463 230.263,78.227 230.086,77.932 230.086 C 77.638 230.086,77.402 229.909,77.402 229.689 C 77.402 229.470,77.223 229.291,77.005 229.291 C 76.784 229.291,76.607 229.055,76.607 228.761 C 76.607 228.466,76.430 228.231,76.209 228.231 C 75.991 228.231,75.812 228.052,75.812 227.833 C 75.812 227.614,75.633 227.435,75.414 227.435 C 75.195 227.435,75.017 227.256,75.017 227.038 C 75.017 226.817,74.781 226.640,74.486 226.640 C 74.192 226.640,73.956 226.463,73.956 226.243 C 73.956 226.024,73.777 225.845,73.559 225.845 C 73.338 225.845,73.161 225.609,73.161 225.315 C 73.161 225.020,72.984 224.785,72.763 224.785 C 72.545 224.785,72.366 224.606,72.366 224.387 C 72.366 224.166,72.130 223.989,71.836 223.989 C 71.541 223.989,71.306 223.813,71.306 223.592 C 71.306 223.373,71.127 223.194,70.908 223.194 C 70.687 223.194,70.510 222.959,70.510 222.664 C 70.510 222.369,70.334 222.134,70.113 222.134 C 69.848 222.134,69.715 221.869,69.715 221.339 C 69.715 220.808,69.583 220.543,69.317 220.543 C 69.099 220.543,68.920 220.364,68.920 220.146 C 68.920 219.925,68.684 219.748,68.390 219.748 C 68.036 219.748,67.860 219.571,67.860 219.218 C 67.860 218.923,67.683 218.688,67.462 218.688 C 67.243 218.688,67.064 218.509,67.064 218.290 C 67.064 218.072,66.885 217.893,66.667 217.893 C 66.402 217.893,66.269 217.628,66.269 217.097 C 66.269 216.567,66.137 216.302,65.871 216.302 C 65.651 216.302,65.474 216.067,65.474 215.772 C 65.474 215.419,65.297 215.242,64.944 215.242 C 64.531 215.242,64.414 215.065,64.414 214.447 C 64.414 213.917,64.281 213.651,64.016 213.651 C 63.795 213.651,63.618 213.416,63.618 213.121 C 63.618 212.827,63.442 212.591,63.221 212.591 C 62.956 212.591,62.823 212.326,62.823 211.796 C 62.823 211.266,62.691 211.001,62.425 211.001 C 62.207 211.001,62.028 210.822,62.028 210.603 C 62.028 210.382,61.792 210.205,61.498 210.205 C 61.069 210.205,60.968 210.029,60.968 209.278 C 60.968 208.630,60.848 208.350,60.570 208.350 C 60.351 208.350,60.172 208.171,60.172 207.952 C 60.172 207.734,59.993 207.555,59.775 207.555 C 59.497 207.555,59.377 207.275,59.377 206.627 C 59.377 205.876,59.276 205.699,58.847 205.699 C 58.435 205.699,58.317 205.522,58.317 204.904 C 58.317 204.374,58.184 204.109,57.919 204.109 C 57.700 204.109,57.522 203.930,57.522 203.711 C 57.522 203.492,57.343 203.313,57.124 203.313 C 56.846 203.313,56.726 203.034,56.726 202.386 C 56.726 201.738,56.606 201.458,56.329 201.458 C 56.061 201.458,55.931 201.190,55.931 200.638 C 55.931 200.041,55.787 199.780,55.401 199.679 C 55.109 199.603,54.871 199.376,54.871 199.174 C 54.871 198.972,54.692 198.807,54.473 198.807 C 54.208 198.807,54.076 198.542,54.076 198.012 C 54.076 197.482,53.943 197.217,53.678 197.217 C 53.400 197.217,53.280 196.937,53.280 196.289 C 53.280 195.641,53.160 195.361,52.883 195.361 C 52.664 195.361,52.485 195.182,52.485 194.964 C 52.485 194.743,52.249 194.566,51.955 194.566 C 51.526 194.566,51.425 194.389,51.425 193.638 C 51.425 192.990,51.305 192.710,51.027 192.710 C 50.762 192.710,50.630 192.445,50.630 191.915 C 50.630 191.385,50.497 191.120,50.232 191.120 C 50.013 191.120,49.834 190.941,49.834 190.722 C 49.834 190.504,49.655 190.325,49.437 190.325 C 49.159 190.325,49.039 190.045,49.039 189.397 C 49.039 188.646,48.938 188.469,48.509 188.469 C 48.080 188.469,47.979 188.292,47.979 187.541 C 47.979 186.893,47.859 186.614,47.581 186.614 C 47.362 186.614,47.184 186.435,47.184 186.216 C 47.184 185.997,47.005 185.818,46.786 185.818 C 46.521 185.818,46.388 185.553,46.388 185.023 C 46.388 184.405,46.271 184.228,45.858 184.228 C 45.429 184.228,45.328 184.051,45.328 183.300 C 45.328 182.652,45.208 182.372,44.930 182.372 C 44.712 182.372,44.533 182.194,44.533 181.975 C 44.533 181.756,44.354 181.577,44.135 181.577 C 43.857 181.577,43.738 181.297,43.738 180.649 C 43.738 180.001,43.618 179.722,43.340 179.722 C 43.075 179.722,42.942 179.457,42.942 178.926 C 42.942 178.308,42.825 178.131,42.412 178.131 C 42.118 178.131,41.882 177.954,41.882 177.734 C 41.882 177.515,41.703 177.336,41.484 177.336 C 41.207 177.336,41.087 177.056,41.087 176.408 C 41.087 175.760,40.967 175.480,40.689 175.480 C 40.411 175.480,40.292 175.201,40.292 174.553 C 40.292 173.905,40.172 173.625,39.894 173.625 C 39.675 173.625,39.496 173.446,39.496 173.227 C 39.496 173.006,39.261 172.830,38.966 172.830 C 38.554 172.830,38.436 172.653,38.436 172.034 C 38.436 171.504,38.304 171.239,38.038 171.239 C 37.761 171.239,37.641 170.959,37.641 170.311 C 37.641 169.664,37.521 169.384,37.243 169.384 C 37.025 169.384,36.846 169.205,36.846 168.986 C 36.846 168.767,36.667 168.588,36.448 168.588 C 36.170 168.588,36.050 168.309,36.050 167.661 C 36.050 166.910,35.949 166.733,35.520 166.733 C 35.108 166.733,34.990 166.556,34.990 165.938 C 34.990 165.408,34.858 165.142,34.592 165.142 C 34.372 165.142,34.195 164.907,34.195 164.612 C 34.195 164.318,34.018 164.082,33.797 164.082 C 33.532 164.082,33.400 163.817,33.400 163.287 C 33.400 162.668,33.282 162.492,32.869 162.492 C 32.575 162.492,32.339 162.315,32.339 162.094 C 32.339 161.875,32.160 161.696,31.942 161.696 C 31.664 161.696,31.544 161.417,31.544 160.769 C 31.544 160.121,31.424 159.841,31.146 159.841 C 30.881 159.841,30.749 159.576,30.749 159.046 C 30.749 158.516,30.616 158.250,30.351 158.250 C 30.133 158.250,29.954 158.060,29.954 157.828 C 29.954 157.596,29.715 157.343,29.423 157.267 C 29.048 157.169,28.893 156.905,28.893 156.364 C 28.893 155.861,28.757 155.600,28.496 155.600 C 28.218 155.600,28.098 155.320,28.098 154.672 C 28.098 154.024,27.978 153.744,27.700 153.744 C 27.482 153.744,27.303 153.565,27.303 153.347 C 27.303 153.128,27.124 152.949,26.905 152.949 C 26.637 152.949,26.508 152.681,26.508 152.129 C 26.508 151.532,26.363 151.271,25.977 151.170 C 25.602 151.072,25.447 150.809,25.447 150.267 C 25.447 149.765,25.311 149.503,25.050 149.503 C 24.831 149.503,24.652 149.324,24.652 149.105 C 24.652 148.887,24.473 148.708,24.254 148.708 C 23.977 148.708,23.857 148.428,23.857 147.780 C 23.857 147.132,23.737 146.852,23.459 146.852 C 23.194 146.852,23.062 146.587,23.062 146.057 C 23.062 145.438,22.944 145.262,22.531 145.262 C 22.178 145.262,22.001 145.085,22.001 144.732 C 22.001 144.437,21.825 144.201,21.604 144.201 C 21.339 144.201,21.206 143.936,21.206 143.406 C 21.206 142.876,21.074 142.611,20.808 142.611 C 20.531 142.611,20.411 142.331,20.411 141.683 C 20.411 140.932,20.310 140.755,19.881 140.755 C 19.586 140.755,19.351 140.579,19.351 140.358 C 19.351 140.139,19.172 139.960,18.953 139.960 C 18.675 139.960,18.555 139.680,18.555 139.032 C 18.555 138.385,18.435 138.105,18.158 138.105 C 17.893 138.105,17.760 137.840,17.760 137.309 C 17.760 136.779,17.628 136.514,17.362 136.514 C 17.144 136.514,16.965 136.335,16.965 136.117 C 16.965 135.896,16.729 135.719,16.435 135.719 C 16.006 135.719,15.905 135.542,15.905 134.791 C 15.905 134.143,15.785 133.863,15.507 133.863 C 15.242 133.863,15.109 133.598,15.109 133.068 C 15.109 132.538,14.977 132.273,14.712 132.273 C 14.491 132.273,14.314 132.037,14.314 131.743 C 14.314 131.448,14.137 131.213,13.917 131.213 C 13.651 131.213,13.519 130.948,13.519 130.417 C 13.519 129.799,13.401 129.622,12.989 129.622 C 12.560 129.622,12.459 129.446,12.459 128.694 C 12.459 128.047,12.339 127.767,12.061 127.767 C 11.842 127.767,11.663 127.588,11.663 127.369 C 11.663 127.150,11.484 126.972,11.266 126.972 C 10.988 126.972,10.868 126.692,10.868 126.044 C 10.868 125.396,10.748 125.116,10.471 125.116 C 10.205 125.116,10.073 124.851,10.073 124.321 C 10.073 123.702,9.955 123.526,9.543 123.526 C 9.248 123.526,9.013 123.349,9.013 123.128 C 9.013 122.909,8.834 122.730,8.615 122.730 C 8.337 122.730,8.217 122.450,8.217 121.803 C 8.217 121.155,8.097 120.875,7.820 120.875 C 7.555 120.875,7.422 120.610,7.422 120.080 C 7.422 119.461,7.304 119.284,6.892 119.284 C 6.463 119.284,6.362 119.108,6.362 118.357 C 6.362 117.709,6.242 117.429,5.964 117.429 C 5.687 117.429,5.567 117.149,5.567 116.501 C 5.567 115.853,5.447 115.573,5.169 115.573 C 4.874 115.573,4.771 115.264,4.771 114.380 C 4.771 113.497,4.668 113.188,4.374 113.188 C 4.096 113.188,3.976 112.908,3.976 112.260 C 3.976 111.509,3.875 111.332,3.446 111.332 C 2.970 111.332,2.916 111.155,2.916 109.609 C 2.916 108.254,2.831 107.886,2.518 107.886 C 2.206 107.886,2.121 107.518,2.121 106.163 C 2.121 104.808,2.036 104.440,1.723 104.440 C 1.386 104.440,1.325 103.777,1.325 100.066 L 1.325 95.693 0.663 95.693 L 0.000 95.693 0.000 180.384 " stroke="none" fill="#ffffff" fill-rule="evenodd"></path><path id="path1" d="M0.000 46.521 L 0.000 93.042 0.663 93.042 L 1.325 93.042 1.325 88.801 C 1.325 85.207,1.386 84.559,1.723 84.559 C 2.036 84.559,2.121 84.191,2.121 82.836 C 2.121 81.481,2.206 81.113,2.518 81.113 C 2.834 81.113,2.916 80.730,2.916 79.258 C 2.916 77.579,2.966 77.402,3.446 77.402 C 3.898 77.402,3.976 77.226,3.976 76.209 C 3.976 75.326,4.079 75.017,4.374 75.017 C 4.651 75.017,4.771 74.737,4.771 74.089 C 4.771 73.441,4.891 73.161,5.169 73.161 C 5.434 73.161,5.567 72.896,5.567 72.366 C 5.567 71.836,5.699 71.571,5.964 71.571 C 6.242 71.571,6.362 71.291,6.362 70.643 C 6.362 69.892,6.463 69.715,6.892 69.715 C 7.304 69.715,7.422 69.538,7.422 68.920 C 7.422 68.390,7.555 68.125,7.820 68.125 C 8.097 68.125,8.217 67.845,8.217 67.197 C 8.217 66.549,8.337 66.269,8.615 66.269 C 8.893 66.269,9.013 65.989,9.013 65.341 C 9.013 64.590,9.114 64.414,9.543 64.414 C 9.837 64.414,10.073 64.237,10.073 64.016 C 10.073 63.797,10.252 63.618,10.471 63.618 C 10.736 63.618,10.868 63.353,10.868 62.823 C 10.868 62.293,11.001 62.028,11.266 62.028 C 11.487 62.028,11.663 61.792,11.663 61.498 C 11.663 61.203,11.840 60.968,12.061 60.968 C 12.280 60.968,12.459 60.789,12.459 60.570 C 12.459 60.349,12.694 60.172,12.989 60.172 C 13.283 60.172,13.519 59.996,13.519 59.775 C 13.519 59.556,13.698 59.377,13.917 59.377 C 14.194 59.377,14.314 59.097,14.314 58.449 C 14.314 57.801,14.434 57.522,14.712 57.522 C 14.930 57.522,15.109 57.343,15.109 57.124 C 15.109 56.905,15.288 56.726,15.507 56.726 C 15.726 56.726,15.905 56.547,15.905 56.329 C 15.905 56.108,16.140 55.931,16.435 55.931 C 16.729 55.931,16.965 55.754,16.965 55.533 C 16.965 55.315,17.144 55.136,17.362 55.136 C 17.583 55.136,17.760 54.900,17.760 54.606 C 17.760 54.311,17.937 54.076,18.158 54.076 C 18.376 54.076,18.555 53.897,18.555 53.678 C 18.555 53.459,18.734 53.280,18.953 53.280 C 19.172 53.280,19.351 53.101,19.351 52.883 C 19.351 52.662,19.586 52.485,19.881 52.485 C 20.234 52.485,20.411 52.308,20.411 51.955 C 20.411 51.543,20.588 51.425,21.206 51.425 C 21.736 51.425,22.001 51.292,22.001 51.027 C 22.001 50.806,22.237 50.630,22.531 50.630 C 22.826 50.630,23.062 50.453,23.062 50.232 C 23.062 50.013,23.241 49.834,23.459 49.834 C 23.678 49.834,23.857 49.655,23.857 49.437 C 23.857 49.172,24.122 49.039,24.652 49.039 C 25.271 49.039,25.447 48.921,25.447 48.509 C 25.447 48.156,25.624 47.979,25.977 47.979 C 26.272 47.979,26.508 47.802,26.508 47.581 C 26.508 47.316,26.773 47.184,27.303 47.184 C 27.833 47.184,28.098 47.051,28.098 46.786 C 28.098 46.508,28.378 46.388,29.026 46.388 C 29.674 46.388,29.954 46.268,29.954 45.991 C 29.954 45.726,30.219 45.593,30.749 45.593 C 31.367 45.593,31.544 45.475,31.544 45.063 C 31.544 44.634,31.721 44.533,32.472 44.533 C 33.120 44.533,33.400 44.413,33.400 44.135 C 33.400 43.870,33.665 43.738,34.195 43.738 C 34.725 43.738,34.990 43.605,34.990 43.340 C 34.990 43.062,35.270 42.942,35.918 42.942 C 36.669 42.942,36.846 42.841,36.846 42.412 C 36.846 41.953,37.022 41.882,38.171 41.882 C 39.172 41.882,39.496 41.785,39.496 41.484 C 39.496 41.172,39.865 41.087,41.219 41.087 C 42.574 41.087,42.942 41.002,42.942 40.689 C 42.942 40.377,43.311 40.292,44.665 40.292 C 46.020 40.292,46.388 40.207,46.388 39.894 C 46.388 39.564,46.892 39.496,49.329 39.496 C 52.047 39.496,52.280 39.456,52.408 38.966 C 52.539 38.467,52.770 38.436,56.360 38.436 C 59.572 38.436,60.172 38.373,60.172 38.038 C 60.172 37.703,60.776 37.641,64.016 37.641 C 67.256 37.641,67.860 37.578,67.860 37.243 C 67.860 36.907,68.478 36.846,71.836 36.846 C 75.193 36.846,75.812 36.784,75.812 36.448 C 75.812 36.115,76.371 36.050,79.258 36.050 C 82.527 36.050,82.704 36.023,82.704 35.520 C 82.704 35.014,82.880 34.990,86.547 34.990 C 89.787 34.990,90.391 34.928,90.391 34.592 C 90.391 34.257,91.009 34.195,94.367 34.195 C 97.725 34.195,98.343 34.133,98.343 33.797 C 98.343 33.462,98.947 33.400,102.187 33.400 C 105.427 33.400,106.030 33.337,106.030 33.002 C 106.030 32.669,106.590 32.604,109.476 32.604 C 112.746 32.604,112.922 32.577,112.922 32.074 C 112.922 31.568,113.099 31.544,116.899 31.544 C 120.256 31.544,120.875 31.482,120.875 31.146 C 120.875 30.811,121.479 30.749,124.718 30.749 C 127.958 30.749,128.562 30.686,128.562 30.351 C 128.562 30.016,129.166 29.954,132.406 29.954 C 136.072 29.954,136.249 29.929,136.249 29.423 C 136.249 28.917,136.426 28.893,140.225 28.893 C 143.583 28.893,144.201 28.831,144.201 28.496 C 144.201 28.163,144.761 28.098,147.647 28.098 C 150.534 28.098,151.093 28.034,151.093 27.700 C 151.093 27.365,151.697 27.303,154.937 27.303 C 158.177 27.303,158.781 27.240,158.781 26.905 C 158.781 26.569,159.399 26.508,162.757 26.508 C 166.556 26.508,166.733 26.484,166.733 25.977 C 166.733 25.472,166.910 25.447,170.577 25.447 C 173.816 25.447,174.420 25.385,174.420 25.050 C 174.420 24.717,174.980 24.652,177.866 24.652 C 180.753 24.652,181.312 24.588,181.312 24.254 C 181.312 23.919,181.931 23.857,185.288 23.857 C 188.646 23.857,189.264 23.795,189.264 23.459 C 189.264 23.124,189.868 23.062,193.108 23.062 C 196.775 23.062,196.952 23.037,196.952 22.531 C 196.952 22.026,197.128 22.001,200.795 22.001 C 204.035 22.001,204.639 21.939,204.639 21.604 C 204.639 21.268,205.257 21.206,208.615 21.206 C 211.973 21.206,212.591 21.144,212.591 20.808 C 212.591 20.475,213.151 20.411,216.037 20.411 C 218.923 20.411,219.483 20.346,219.483 20.013 C 219.483 19.678,220.087 19.616,223.327 19.616 C 226.994 19.616,227.170 19.591,227.170 19.085 C 227.170 18.579,227.347 18.555,231.146 18.555 C 234.504 18.555,235.123 18.493,235.123 18.158 C 235.123 17.823,235.726 17.760,238.966 17.760 C 242.206 17.760,242.810 17.698,242.810 17.362 C 242.810 17.029,243.369 16.965,246.256 16.965 C 249.525 16.965,249.702 16.938,249.702 16.435 C 249.702 15.928,249.879 15.905,253.678 15.905 C 257.036 15.905,257.654 15.843,257.654 15.507 C 257.654 15.172,258.258 15.109,261.498 15.109 C 264.738 15.109,265.341 15.047,265.341 14.712 C 265.341 14.377,265.945 14.314,269.185 14.314 C 272.425 14.314,273.028 14.252,273.028 13.917 C 273.028 13.581,273.647 13.519,277.005 13.519 C 280.804 13.519,280.981 13.495,280.981 12.989 C 280.981 12.486,281.157 12.459,284.427 12.459 C 287.313 12.459,287.873 12.394,287.873 12.061 C 287.873 11.726,288.477 11.663,291.716 11.663 C 294.956 11.663,295.560 11.601,295.560 11.266 C 295.560 10.930,296.178 10.868,299.536 10.868 C 302.894 10.868,303.512 10.806,303.512 10.471 C 303.512 10.135,304.116 10.073,307.356 10.073 C 311.023 10.073,311.199 10.049,311.199 9.543 C 311.199 9.040,311.376 9.013,314.645 9.013 C 317.532 9.013,318.091 8.948,318.091 8.615 C 318.091 8.279,318.710 8.217,322.068 8.217 C 325.425 8.217,326.044 8.156,326.044 7.820 C 326.044 7.485,326.648 7.422,329.887 7.422 C 333.127 7.422,333.731 7.360,333.731 7.025 C 333.731 6.689,334.337 6.627,337.599 6.627 C 341.245 6.627,341.476 6.596,341.606 6.097 C 341.737 5.598,341.968 5.567,345.558 5.567 C 348.770 5.567,349.370 5.504,349.370 5.169 C 349.370 4.836,349.930 4.771,352.816 4.771 C 355.703 4.771,356.262 4.707,356.262 4.374 C 356.262 4.039,356.866 3.976,360.106 3.976 C 363.773 3.976,363.950 3.952,363.950 3.446 C 363.950 2.939,364.126 2.916,367.926 2.916 C 371.283 2.916,371.902 2.854,371.902 2.518 C 371.902 2.183,372.506 2.121,375.746 2.121 C 378.985 2.121,379.589 2.058,379.589 1.723 C 379.589 1.387,380.208 1.325,383.565 1.325 L 387.541 1.325 387.541 0.663 L 387.541 0.000 193.771 0.000 L 0.000 0.000 0.000 46.521 M390.987 0.663 C 390.987 1.281,391.076 1.325,392.313 1.325 C 393.314 1.325,393.638 1.423,393.638 1.723 C 393.638 1.942,393.817 2.121,394.036 2.121 C 394.254 2.121,394.433 2.300,394.433 2.518 C 394.433 2.796,394.713 2.916,395.361 2.916 C 396.112 2.916,396.289 3.017,396.289 3.446 C 396.289 3.741,396.466 3.976,396.687 3.976 C 396.905 3.976,397.084 4.155,397.084 4.374 C 397.084 4.592,397.263 4.771,397.482 4.771 C 397.759 4.771,397.879 5.051,397.879 5.699 C 397.879 6.347,397.999 6.627,398.277 6.627 C 398.572 6.627,398.675 6.936,398.675 7.820 C 398.675 8.915,398.729 9.013,399.337 9.013 L 400.000 9.013 400.000 4.506 L 400.000 0.000 395.494 0.000 L 390.987 0.000 390.987 0.663 M398.675 14.844 C 398.675 15.846,398.577 16.170,398.277 16.170 C 398.058 16.170,397.879 16.349,397.879 16.567 C 397.879 16.786,397.700 16.965,397.482 16.965 C 397.217 16.965,397.084 17.230,397.084 17.760 C 397.084 18.290,396.952 18.555,396.687 18.555 C 396.466 18.555,396.289 18.791,396.289 19.085 C 396.289 19.439,396.112 19.616,395.759 19.616 C 395.346 19.616,395.229 19.792,395.229 20.411 C 395.229 20.941,395.096 21.206,394.831 21.206 C 394.610 21.206,394.433 21.442,394.433 21.736 C 394.433 22.031,394.257 22.266,394.036 22.266 C 393.817 22.266,393.638 22.445,393.638 22.664 C 393.638 22.885,393.403 23.062,393.108 23.062 C 392.696 23.062,392.578 23.238,392.578 23.857 C 392.578 24.387,392.445 24.652,392.180 24.652 C 391.959 24.652,391.783 24.888,391.783 25.182 C 391.783 25.477,391.606 25.712,391.385 25.712 C 391.166 25.712,390.987 25.891,390.987 26.110 C 390.987 26.329,390.808 26.508,390.590 26.508 C 390.328 26.508,390.192 26.769,390.192 27.272 C 390.192 27.813,390.038 28.077,389.662 28.175 C 389.370 28.251,389.132 28.504,389.132 28.736 C 389.132 28.968,388.953 29.158,388.734 29.158 C 388.469 29.158,388.337 29.423,388.337 29.954 C 388.337 30.484,388.204 30.749,387.939 30.749 C 387.720 30.749,387.541 30.928,387.541 31.146 C 387.541 31.365,387.362 31.544,387.144 31.544 C 386.923 31.544,386.746 31.780,386.746 32.074 C 386.746 32.428,386.569 32.604,386.216 32.604 C 385.804 32.604,385.686 32.781,385.686 33.400 C 385.686 33.930,385.553 34.195,385.288 34.195 C 385.067 34.195,384.891 34.430,384.891 34.725 C 384.891 35.020,384.714 35.255,384.493 35.255 C 384.228 35.255,384.095 35.520,384.095 36.050 C 384.095 36.581,383.963 36.846,383.698 36.846 C 383.479 36.846,383.300 37.025,383.300 37.243 C 383.300 37.464,383.065 37.641,382.770 37.641 C 382.417 37.641,382.240 37.818,382.240 38.171 C 382.240 38.466,382.063 38.701,381.842 38.701 C 381.577 38.701,381.445 38.966,381.445 39.496 C 381.445 40.027,381.312 40.292,381.047 40.292 C 380.828 40.292,380.649 40.457,380.649 40.658 C 380.649 40.860,380.411 41.087,380.119 41.164 C 379.733 41.265,379.589 41.525,379.589 42.122 C 379.589 42.675,379.459 42.942,379.192 42.942 C 378.973 42.942,378.794 43.121,378.794 43.340 C 378.794 43.559,378.615 43.738,378.396 43.738 C 378.175 43.738,377.999 43.973,377.999 44.268 C 377.999 44.562,377.822 44.798,377.601 44.798 C 377.336 44.798,377.203 45.063,377.203 45.593 C 377.203 46.212,377.086 46.388,376.673 46.388 C 376.379 46.388,376.143 46.565,376.143 46.786 C 376.143 47.005,375.964 47.184,375.746 47.184 C 375.468 47.184,375.348 47.463,375.348 48.111 C 375.348 48.759,375.228 49.039,374.950 49.039 C 374.732 49.039,374.553 49.218,374.553 49.437 C 374.553 49.655,374.374 49.834,374.155 49.834 C 373.936 49.834,373.757 49.999,373.757 50.201 C 373.757 50.403,373.519 50.630,373.227 50.706 C 372.841 50.807,372.697 51.068,372.697 51.665 C 372.697 52.217,372.567 52.485,372.300 52.485 C 372.081 52.485,371.902 52.664,371.902 52.883 C 371.902 53.101,371.723 53.280,371.504 53.280 C 371.227 53.280,371.107 53.560,371.107 54.208 C 371.107 54.856,370.987 55.136,370.709 55.136 C 370.490 55.136,370.311 55.315,370.311 55.533 C 370.311 55.754,370.076 55.931,369.781 55.931 C 369.487 55.931,369.251 56.108,369.251 56.329 C 369.251 56.547,369.072 56.726,368.854 56.726 C 368.576 56.726,368.456 57.006,368.456 57.654 C 368.456 58.302,368.336 58.582,368.058 58.582 C 367.840 58.582,367.661 58.761,367.661 58.979 C 367.661 59.200,367.425 59.377,367.131 59.377 C 366.836 59.377,366.600 59.554,366.600 59.775 C 366.600 59.993,366.421 60.172,366.203 60.172 C 365.925 60.172,365.805 60.452,365.805 61.100 C 365.805 61.748,365.685 62.028,365.408 62.028 C 365.189 62.028,365.010 62.207,365.010 62.425 C 365.010 62.644,364.831 62.823,364.612 62.823 C 364.335 62.823,364.215 63.103,364.215 63.751 C 364.215 64.502,364.114 64.679,363.685 64.679 C 363.390 64.679,363.154 64.855,363.154 65.076 C 363.154 65.295,362.975 65.474,362.757 65.474 C 362.538 65.474,362.359 65.653,362.359 65.871 C 362.359 66.090,362.180 66.269,361.962 66.269 C 361.684 66.269,361.564 66.549,361.564 67.197 C 361.564 67.845,361.444 68.125,361.166 68.125 C 360.948 68.125,360.769 68.304,360.769 68.522 C 360.769 68.743,360.533 68.920,360.239 68.920 C 359.809 68.920,359.708 69.097,359.708 69.848 C 359.708 70.496,359.589 70.775,359.311 70.775 C 359.092 70.775,358.913 70.954,358.913 71.173 C 358.913 71.392,358.734 71.571,358.516 71.571 C 358.297 71.571,358.118 71.750,358.118 71.968 C 358.118 72.187,357.939 72.366,357.720 72.366 C 357.443 72.366,357.323 72.646,357.323 73.294 C 357.323 74.045,357.222 74.221,356.793 74.221 C 356.498 74.221,356.262 74.398,356.262 74.619 C 356.262 74.838,356.083 75.017,355.865 75.017 C 355.600 75.017,355.467 75.282,355.467 75.812 C 355.467 76.342,355.335 76.607,355.070 76.607 C 354.849 76.607,354.672 76.843,354.672 77.137 C 354.672 77.491,354.495 77.667,354.142 77.667 C 353.847 77.667,353.612 77.844,353.612 78.065 C 353.612 78.284,353.433 78.463,353.214 78.463 C 352.949 78.463,352.816 78.728,352.816 79.258 C 352.816 79.788,352.684 80.053,352.419 80.053 C 352.198 80.053,352.021 80.289,352.021 80.583 C 352.021 80.878,351.844 81.113,351.624 81.113 C 351.359 81.113,351.226 81.378,351.226 81.909 C 351.226 82.527,351.108 82.704,350.696 82.704 C 350.342 82.704,350.166 82.880,350.166 83.234 C 350.166 83.528,349.989 83.764,349.768 83.764 C 349.549 83.764,349.370 83.943,349.370 84.162 C 349.370 84.380,349.192 84.559,348.973 84.559 C 348.708 84.559,348.575 84.824,348.575 85.355 C 348.575 85.885,348.443 86.150,348.178 86.150 C 347.957 86.150,347.780 86.385,347.780 86.680 C 347.780 87.033,347.603 87.210,347.250 87.210 C 346.955 87.210,346.720 87.387,346.720 87.608 C 346.720 87.826,346.541 88.005,346.322 88.005 C 346.057 88.005,345.924 88.270,345.924 88.801 C 345.924 89.331,345.792 89.596,345.527 89.596 C 345.306 89.596,345.129 89.831,345.129 90.126 C 345.129 90.420,344.953 90.656,344.732 90.656 C 344.467 90.656,344.334 90.921,344.334 91.451 C 344.334 92.070,344.216 92.247,343.804 92.247 C 343.450 92.247,343.274 92.423,343.274 92.777 C 343.274 93.071,343.097 93.307,342.876 93.307 C 342.657 93.307,342.478 93.486,342.478 93.704 C 342.478 93.923,342.300 94.102,342.081 94.102 C 341.816 94.102,341.683 94.367,341.683 94.897 C 341.683 95.448,341.553 95.693,341.261 95.693 C 341.028 95.693,340.776 95.931,340.700 96.223 C 340.623 96.514,340.396 96.753,340.194 96.753 C 339.964 96.753,339.828 97.048,339.828 97.548 C 339.828 98.078,339.695 98.343,339.430 98.343 C 339.211 98.343,339.032 98.522,339.032 98.741 C 339.032 98.960,338.854 99.139,338.635 99.139 C 338.414 99.139,338.237 99.374,338.237 99.669 C 338.237 100.022,338.061 100.199,337.707 100.199 C 337.295 100.199,337.177 100.376,337.177 100.994 C 337.177 101.524,337.044 101.789,336.779 101.789 C 336.561 101.789,336.382 101.968,336.382 102.187 C 336.382 102.406,336.203 102.584,335.984 102.584 C 335.706 102.584,335.586 102.864,335.586 103.512 C 335.586 104.160,335.467 104.440,335.189 104.440 C 334.970 104.440,334.791 104.619,334.791 104.838 C 334.791 105.059,334.556 105.235,334.261 105.235 C 333.908 105.235,333.731 105.412,333.731 105.765 C 333.731 106.060,333.554 106.296,333.333 106.296 C 333.068 106.296,332.936 106.561,332.936 107.091 C 332.936 107.621,332.803 107.886,332.538 107.886 C 332.319 107.886,332.140 108.065,332.140 108.284 C 332.140 108.502,331.962 108.681,331.743 108.681 C 331.465 108.681,331.345 108.961,331.345 109.609 C 331.345 110.360,331.244 110.537,330.815 110.537 C 330.521 110.537,330.285 110.713,330.285 110.934 C 330.285 111.153,330.106 111.332,329.887 111.332 C 329.669 111.332,329.490 111.511,329.490 111.730 C 329.490 111.948,329.311 112.127,329.092 112.127 C 328.814 112.127,328.694 112.407,328.694 113.055 C 328.694 113.806,328.594 113.983,328.164 113.983 C 327.870 113.983,327.634 114.159,327.634 114.380 C 327.634 114.599,327.455 114.778,327.237 114.778 C 326.959 114.778,326.839 115.058,326.839 115.706 C 326.839 116.354,326.719 116.634,326.441 116.634 C 326.223 116.634,326.044 116.812,326.044 117.031 C 326.044 117.250,325.865 117.429,325.646 117.429 C 325.427 117.429,325.249 117.608,325.249 117.826 C 325.249 118.047,325.013 118.224,324.718 118.224 C 324.289 118.224,324.188 118.401,324.188 119.152 C 324.188 119.800,324.068 120.080,323.791 120.080 C 323.572 120.080,323.393 120.258,323.393 120.477 C 323.393 120.696,323.214 120.875,322.995 120.875 C 322.777 120.875,322.598 121.054,322.598 121.272 C 322.598 121.491,322.419 121.670,322.200 121.670 C 321.922 121.670,321.803 121.950,321.803 122.598 C 321.803 123.349,321.702 123.526,321.272 123.526 C 320.978 123.526,320.742 123.702,320.742 123.923 C 320.742 124.142,320.563 124.321,320.345 124.321 C 320.067 124.321,319.947 124.601,319.947 125.249 C 319.947 125.896,319.827 126.176,319.549 126.176 C 319.331 126.176,319.152 126.355,319.152 126.574 C 319.152 126.793,318.973 126.972,318.754 126.972 C 318.535 126.972,318.357 127.150,318.357 127.369 C 318.357 127.590,318.121 127.767,317.826 127.767 C 317.397 127.767,317.296 127.943,317.296 128.694 C 317.296 129.342,317.176 129.622,316.899 129.622 C 316.680 129.622,316.501 129.801,316.501 130.020 C 316.501 130.239,316.322 130.417,316.103 130.417 C 315.826 130.417,315.706 130.697,315.706 131.345 C 315.706 132.096,315.605 132.273,315.176 132.273 C 314.881 132.273,314.645 132.450,314.645 132.671 C 314.645 132.889,314.467 133.068,314.248 133.068 C 314.029 133.068,313.850 133.247,313.850 133.466 C 313.850 133.685,313.671 133.863,313.453 133.863 C 313.175 133.863,313.055 134.143,313.055 134.791 C 313.055 135.439,312.935 135.719,312.657 135.719 C 312.439 135.719,312.260 135.898,312.260 136.117 C 312.260 136.338,312.024 136.514,311.730 136.514 C 311.317 136.514,311.199 136.691,311.199 137.309 C 311.199 137.840,311.067 138.105,310.802 138.105 C 310.581 138.105,310.404 138.340,310.404 138.635 C 310.404 138.929,310.228 139.165,310.007 139.165 C 309.788 139.165,309.609 139.344,309.609 139.563 C 309.609 139.781,309.430 139.960,309.211 139.960 C 308.934 139.960,308.814 140.240,308.814 140.888 C 308.814 141.639,308.713 141.816,308.284 141.816 C 307.989 141.816,307.753 141.992,307.753 142.213 C 307.753 142.432,307.575 142.611,307.356 142.611 C 307.091 142.611,306.958 142.876,306.958 143.406 C 306.958 143.936,306.826 144.201,306.561 144.201 C 306.340 144.201,306.163 144.437,306.163 144.732 C 306.163 145.026,305.986 145.262,305.765 145.262 C 305.547 145.262,305.368 145.441,305.368 145.659 C 305.368 145.880,305.132 146.057,304.838 146.057 C 304.425 146.057,304.307 146.234,304.307 146.852 C 304.307 147.382,304.175 147.647,303.910 147.647 C 303.689 147.647,303.512 147.883,303.512 148.178 C 303.512 148.472,303.336 148.708,303.115 148.708 C 302.896 148.708,302.717 148.887,302.717 149.105 C 302.717 149.326,302.481 149.503,302.187 149.503 C 301.775 149.503,301.657 149.680,301.657 150.298 C 301.657 150.828,301.524 151.093,301.259 151.093 C 301.038 151.093,300.861 151.329,300.861 151.624 C 300.861 151.918,300.685 152.154,300.464 152.154 C 300.199 152.154,300.066 152.419,300.066 152.949 C 300.066 153.479,299.934 153.744,299.669 153.744 C 299.448 153.744,299.271 153.980,299.271 154.274 C 299.271 154.628,299.094 154.805,298.741 154.805 C 298.446 154.805,298.211 154.981,298.211 155.202 C 298.211 155.421,298.032 155.600,297.813 155.600 C 297.548 155.600,297.416 155.865,297.416 156.395 C 297.416 156.925,297.283 157.190,297.018 157.190 C 296.797 157.190,296.620 157.426,296.620 157.720 C 296.620 158.015,296.444 158.250,296.223 158.250 C 295.958 158.250,295.825 158.516,295.825 159.046 C 295.825 159.664,295.707 159.841,295.295 159.841 C 295.000 159.841,294.765 160.018,294.765 160.239 C 294.765 160.457,294.586 160.636,294.367 160.636 C 294.146 160.636,293.970 160.872,293.970 161.166 C 293.970 161.461,293.793 161.696,293.572 161.696 C 293.307 161.696,293.174 161.962,293.174 162.492 C 293.174 163.022,293.042 163.287,292.777 163.287 C 292.558 163.287,292.379 163.466,292.379 163.685 C 292.379 163.905,292.143 164.082,291.849 164.082 C 291.420 164.082,291.319 164.259,291.319 165.010 C 291.319 165.658,291.199 165.938,290.921 165.938 C 290.702 165.938,290.524 166.117,290.524 166.335 C 290.524 166.554,290.345 166.733,290.126 166.733 C 289.905 166.733,289.728 166.969,289.728 167.263 C 289.728 167.617,289.552 167.793,289.198 167.793 C 288.786 167.793,288.668 167.970,288.668 168.588 C 288.668 169.119,288.535 169.384,288.270 169.384 C 288.052 169.384,287.873 169.563,287.873 169.781 C 287.873 170.000,287.694 170.179,287.475 170.179 C 287.197 170.179,287.078 170.459,287.078 171.107 C 287.078 171.755,286.958 172.034,286.680 172.034 C 286.461 172.034,286.282 172.213,286.282 172.432 C 286.282 172.653,286.047 172.830,285.752 172.830 C 285.458 172.830,285.222 173.006,285.222 173.227 C 285.222 173.446,285.043 173.625,284.824 173.625 C 284.547 173.625,284.427 173.905,284.427 174.553 C 284.427 175.201,284.307 175.480,284.029 175.480 C 283.810 175.480,283.632 175.659,283.632 175.878 C 283.632 176.097,283.453 176.276,283.234 176.276 C 283.013 176.276,282.836 176.511,282.836 176.806 C 282.836 177.159,282.660 177.336,282.306 177.336 C 281.894 177.336,281.776 177.513,281.776 178.131 C 281.776 178.661,281.643 178.926,281.378 178.926 C 281.160 178.926,280.981 179.105,280.981 179.324 C 280.981 179.543,280.802 179.722,280.583 179.722 C 280.305 179.722,280.186 180.001,280.186 180.649 C 280.186 181.297,280.066 181.577,279.788 181.577 C 279.569 181.577,279.390 181.756,279.390 181.975 C 279.390 182.196,279.155 182.372,278.860 182.372 C 278.566 182.372,278.330 182.549,278.330 182.770 C 278.330 182.989,278.151 183.168,277.932 183.168 C 277.655 183.168,277.535 183.447,277.535 184.095 C 277.535 184.743,277.415 185.023,277.137 185.023 C 276.918 185.023,276.740 185.202,276.740 185.421 C 276.740 185.639,276.561 185.818,276.342 185.818 C 276.064 185.818,275.944 186.098,275.944 186.746 C 275.944 187.497,275.843 187.674,275.414 187.674 C 275.120 187.674,274.884 187.851,274.884 188.072 C 274.884 188.290,274.705 188.469,274.486 188.469 C 274.268 188.469,274.089 188.648,274.089 188.867 C 274.089 189.085,273.910 189.264,273.691 189.264 C 273.413 189.264,273.294 189.544,273.294 190.192 C 273.294 190.943,273.193 191.120,272.763 191.120 C 272.469 191.120,272.233 191.297,272.233 191.518 C 272.233 191.736,272.054 191.915,271.836 191.915 C 271.558 191.915,271.438 192.195,271.438 192.843 C 271.438 193.491,271.318 193.771,271.040 193.771 C 270.822 193.771,270.643 193.950,270.643 194.168 C 270.643 194.387,270.464 194.566,270.245 194.566 C 270.027 194.566,269.848 194.745,269.848 194.964 C 269.848 195.184,269.612 195.361,269.317 195.361 C 268.888 195.361,268.787 195.538,268.787 196.289 C 268.787 196.937,268.667 197.217,268.390 197.217 C 268.171 197.217,267.992 197.396,267.992 197.614 C 267.992 197.833,267.813 198.012,267.594 198.012 C 267.329 198.012,267.197 198.277,267.197 198.807 C 267.197 199.337,267.064 199.602,266.799 199.602 C 266.578 199.602,266.402 199.838,266.402 200.133 C 266.402 200.486,266.225 200.663,265.871 200.663 C 265.577 200.663,265.341 200.839,265.341 201.060 C 265.341 201.279,265.162 201.458,264.944 201.458 C 264.666 201.458,264.546 201.738,264.546 202.386 C 264.546 203.034,264.426 203.313,264.148 203.313 C 263.930 203.313,263.751 203.492,263.751 203.711 C 263.751 203.930,263.572 204.109,263.353 204.109 C 263.088 204.109,262.956 204.374,262.956 204.904 C 262.956 205.522,262.838 205.699,262.425 205.699 C 262.072 205.699,261.895 205.876,261.895 206.229 C 261.895 206.524,261.719 206.759,261.498 206.759 C 261.279 206.759,261.100 206.938,261.100 207.157 C 261.100 207.376,260.921 207.555,260.702 207.555 C 260.441 207.555,260.305 207.816,260.305 208.319 C 260.305 208.860,260.150 209.124,259.775 209.222 C 259.483 209.298,259.245 209.551,259.245 209.783 C 259.245 210.015,259.066 210.205,258.847 210.205 C 258.582 210.205,258.449 210.471,258.449 211.001 C 258.449 211.531,258.317 211.796,258.052 211.796 C 257.833 211.796,257.654 211.975,257.654 212.194 C 257.654 212.412,257.475 212.591,257.256 212.591 C 256.979 212.591,256.859 212.871,256.859 213.519 C 256.859 214.270,256.758 214.447,256.329 214.447 C 256.034 214.447,255.799 214.623,255.799 214.844 C 255.799 215.063,255.620 215.242,255.401 215.242 C 255.180 215.242,255.003 215.478,255.003 215.772 C 255.003 216.067,254.827 216.302,254.606 216.302 C 254.341 216.302,254.208 216.567,254.208 217.097 C 254.208 217.628,254.076 217.893,253.810 217.893 C 253.592 217.893,253.413 218.058,253.413 218.259 C 253.413 218.461,253.174 218.688,252.883 218.765 C 252.591 218.841,252.353 219.093,252.353 219.326 C 252.353 219.558,252.174 219.748,251.955 219.748 C 251.690 219.748,251.557 220.013,251.557 220.543 C 251.557 221.074,251.425 221.339,251.160 221.339 C 250.941 221.339,250.762 221.518,250.762 221.736 C 250.762 221.955,250.583 222.134,250.364 222.134 C 250.144 222.134,249.967 222.369,249.967 222.664 C 249.967 223.017,249.790 223.194,249.437 223.194 C 249.142 223.194,248.907 223.371,248.907 223.592 C 248.907 223.810,248.728 223.989,248.509 223.989 C 248.290 223.989,248.111 224.168,248.111 224.387 C 248.111 224.606,247.932 224.785,247.714 224.785 C 247.493 224.785,247.316 225.020,247.316 225.315 C 247.316 225.668,247.139 225.845,246.786 225.845 C 246.491 225.845,246.256 226.022,246.256 226.243 C 246.256 226.461,246.077 226.640,245.858 226.640 C 245.593 226.640,245.461 226.905,245.461 227.435 C 245.461 227.966,245.328 228.231,245.063 228.231 C 244.842 228.231,244.665 228.466,244.665 228.761 C 244.665 229.055,244.489 229.291,244.268 229.291 C 244.049 229.291,243.870 229.470,243.870 229.689 C 243.870 229.909,243.634 230.086,243.340 230.086 C 243.045 230.086,242.810 230.263,242.810 230.484 C 242.810 230.702,242.631 230.881,242.412 230.881 C 242.194 230.881,242.015 231.060,242.015 231.279 C 242.015 231.498,241.836 231.677,241.617 231.677 C 241.396 231.677,241.219 231.912,241.219 232.207 C 241.219 232.501,241.043 232.737,240.822 232.737 C 240.603 232.737,240.424 232.916,240.424 233.135 C 240.424 233.412,240.144 233.532,239.496 233.532 C 238.848 233.532,238.569 233.652,238.569 233.930 C 238.569 234.148,238.390 234.327,238.171 234.327 C 237.952 234.327,237.773 234.506,237.773 234.725 C 237.773 234.944,237.594 235.123,237.376 235.123 C 237.155 235.123,236.978 235.358,236.978 235.653 C 236.978 236.006,236.801 236.183,236.448 236.183 C 236.153 236.183,235.918 236.360,235.918 236.581 C 235.918 236.799,235.739 236.978,235.520 236.978 C 235.302 236.978,235.123 237.157,235.123 237.376 C 235.123 237.594,234.944 237.773,234.725 237.773 C 234.504 237.773,234.327 238.009,234.327 238.304 C 234.327 238.733,234.151 238.834,233.400 238.834 C 232.752 238.834,232.472 238.954,232.472 239.231 C 232.472 239.450,232.293 239.629,232.074 239.629 C 231.856 239.629,231.677 239.808,231.677 240.027 C 231.677 240.245,231.498 240.424,231.279 240.424 C 231.060 240.424,230.881 240.603,230.881 240.822 C 230.881 241.099,230.602 241.219,229.954 241.219 C 229.203 241.219,229.026 241.320,229.026 241.750 C 229.026 242.044,228.849 242.280,228.628 242.280 C 228.410 242.280,228.231 242.459,228.231 242.677 C 228.231 242.896,228.052 243.075,227.833 243.075 C 227.614 243.075,227.435 243.254,227.435 243.472 C 227.435 243.750,227.156 243.870,226.508 243.870 C 225.860 243.870,225.580 243.990,225.580 244.268 C 225.580 244.486,225.401 244.665,225.182 244.665 C 224.961 244.665,224.785 244.901,224.785 245.195 C 224.785 245.625,224.608 245.726,223.857 245.726 C 223.209 245.726,222.929 245.846,222.929 246.123 C 222.929 246.342,222.750 246.521,222.531 246.521 C 222.313 246.521,222.134 246.700,222.134 246.918 C 222.134 247.196,221.854 247.316,221.206 247.316 C 220.558 247.316,220.278 247.436,220.278 247.714 C 220.278 247.979,220.013 248.111,219.483 248.111 C 218.865 248.111,218.688 248.229,218.688 248.641 C 218.688 248.936,218.511 249.172,218.290 249.172 C 218.072 249.172,217.893 249.351,217.893 249.569 C 217.893 249.847,217.613 249.967,216.965 249.967 C 216.317 249.967,216.037 250.087,216.037 250.364 C 216.037 250.630,215.772 250.762,215.242 250.762 C 214.623 250.762,214.447 250.880,214.447 251.292 C 214.447 251.721,214.270 251.822,213.519 251.822 C 212.871 251.822,212.591 251.942,212.591 252.220 C 212.591 252.485,212.326 252.618,211.796 252.618 C 211.266 252.618,211.001 252.750,211.001 253.015 C 211.001 253.293,210.721 253.413,210.073 253.413 C 209.425 253.413,209.145 253.533,209.145 253.810 C 209.145 254.078,208.877 254.208,208.325 254.208 C 207.728 254.208,207.467 254.352,207.366 254.738 C 207.254 255.167,207.005 255.268,206.066 255.268 C 205.210 255.268,204.904 255.373,204.904 255.666 C 204.904 255.944,204.624 256.064,203.976 256.064 C 203.328 256.064,203.048 256.184,203.048 256.461 C 203.048 256.762,202.724 256.859,201.723 256.859 C 200.722 256.859,200.398 256.956,200.398 257.256 C 200.398 257.551,200.088 257.654,199.205 257.654 C 198.189 257.654,198.012 257.733,198.012 258.184 C 198.012 258.644,197.835 258.714,196.687 258.714 C 195.685 258.714,195.361 258.812,195.361 259.112 C 195.361 259.412,195.037 259.510,194.036 259.510 C 193.034 259.510,192.710 259.607,192.710 259.907 C 192.710 260.208,192.386 260.305,191.385 260.305 C 190.384 260.305,190.060 260.402,190.060 260.702 C 190.060 261.023,189.647 261.100,187.939 261.100 C 185.995 261.100,185.818 261.144,185.818 261.630 C 185.818 262.106,185.642 262.160,184.095 262.160 C 182.741 262.160,182.372 262.245,182.372 262.558 C 182.372 262.885,181.901 262.956,179.722 262.956 C 177.542 262.956,177.071 263.026,177.071 263.353 C 177.071 263.688,176.467 263.751,173.227 263.751 L 169.384 263.751 169.384 264.414 L 169.384 265.076 284.692 265.076 L 400.000 265.076 400.000 139.298 L 400.000 13.519 399.337 13.519 C 398.719 13.519,398.675 13.607,398.675 14.844 M0.000 180.384 L 0.000 265.076 75.547 265.076 L 151.093 265.076 151.093 264.414 L 151.093 263.751 147.250 263.751 C 144.010 263.751,143.406 263.688,143.406 263.353 C 143.406 263.026,142.935 262.956,140.755 262.956 C 138.576 262.956,138.105 262.885,138.105 262.558 C 138.105 262.245,137.737 262.160,136.382 262.160 C 134.835 262.160,134.659 262.106,134.659 261.630 C 134.659 261.154,134.482 261.100,132.936 261.100 C 131.581 261.100,131.213 261.015,131.213 260.702 C 131.213 260.390,130.845 260.305,129.490 260.305 C 128.135 260.305,127.767 260.220,127.767 259.907 C 127.767 259.607,127.443 259.510,126.441 259.510 C 125.440 259.510,125.116 259.412,125.116 259.112 C 125.116 258.812,124.792 258.714,123.791 258.714 C 122.642 258.714,122.465 258.644,122.465 258.184 C 122.465 257.725,122.288 257.654,121.140 257.654 C 120.138 257.654,119.814 257.557,119.814 257.256 C 119.814 256.962,119.505 256.859,118.622 256.859 C 117.738 256.859,117.429 256.756,117.429 256.461 C 117.429 256.184,117.149 256.064,116.501 256.064 C 115.853 256.064,115.573 255.944,115.573 255.666 C 115.573 255.405,115.312 255.268,114.809 255.268 C 114.268 255.268,114.004 255.114,113.906 254.738 C 113.793 254.305,113.544 254.208,112.550 254.208 C 111.644 254.208,111.332 254.106,111.332 253.810 C 111.332 253.533,111.052 253.413,110.404 253.413 C 109.756 253.413,109.476 253.293,109.476 253.015 C 109.476 252.750,109.211 252.618,108.681 252.618 C 108.151 252.618,107.886 252.485,107.886 252.220 C 107.886 251.942,107.606 251.822,106.958 251.822 C 106.207 251.822,106.030 251.721,106.030 251.292 C 106.030 250.880,105.854 250.762,105.235 250.762 C 104.705 250.762,104.440 250.630,104.440 250.364 C 104.440 250.144,104.204 249.967,103.910 249.967 C 103.615 249.967,103.380 249.790,103.380 249.569 C 103.380 249.304,103.115 249.172,102.584 249.172 C 101.966 249.172,101.789 249.054,101.789 248.641 C 101.789 248.212,101.613 248.111,100.861 248.111 C 100.214 248.111,99.934 247.991,99.934 247.714 C 99.934 247.495,99.755 247.316,99.536 247.316 C 99.317 247.316,99.139 247.137,99.139 246.918 C 99.139 246.641,98.859 246.521,98.211 246.521 C 97.563 246.521,97.283 246.401,97.283 246.123 C 97.283 245.905,97.104 245.726,96.885 245.726 C 96.664 245.726,96.488 245.490,96.488 245.195 C 96.488 244.783,96.311 244.665,95.693 244.665 C 95.162 244.665,94.897 244.533,94.897 244.268 C 94.897 244.047,94.662 243.870,94.367 243.870 C 94.073 243.870,93.837 243.693,93.837 243.472 C 93.837 243.207,93.572 243.075,93.042 243.075 C 92.512 243.075,92.247 242.942,92.247 242.677 C 92.247 242.459,92.082 242.280,91.880 242.280 C 91.678 242.280,91.451 242.041,91.374 241.750 C 91.274 241.363,91.013 241.219,90.416 241.219 C 89.864 241.219,89.596 241.089,89.596 240.822 C 89.596 240.603,89.417 240.424,89.198 240.424 C 88.979 240.424,88.801 240.245,88.801 240.027 C 88.801 239.808,88.622 239.629,88.403 239.629 C 88.184 239.629,88.005 239.450,88.005 239.231 C 88.005 239.010,87.770 238.834,87.475 238.834 C 87.122 238.834,86.945 238.657,86.945 238.304 C 86.945 237.891,86.768 237.773,86.150 237.773 C 85.620 237.773,85.355 237.641,85.355 237.376 C 85.355 237.155,85.119 236.978,84.824 236.978 C 84.530 236.978,84.294 236.801,84.294 236.581 C 84.294 236.362,84.115 236.183,83.897 236.183 C 83.676 236.183,83.499 235.947,83.499 235.653 C 83.499 235.358,83.322 235.123,83.101 235.123 C 82.883 235.123,82.704 234.944,82.704 234.725 C 82.704 234.506,82.525 234.327,82.306 234.327 C 82.087 234.327,81.909 234.148,81.909 233.930 C 81.909 233.709,81.673 233.532,81.378 233.532 C 81.084 233.532,80.848 233.355,80.848 233.135 C 80.848 232.916,80.669 232.737,80.451 232.737 C 80.230 232.737,80.053 232.501,80.053 232.207 C 80.053 231.912,79.876 231.677,79.655 231.677 C 79.437 231.677,79.258 231.498,79.258 231.279 C 79.258 231.060,79.079 230.881,78.860 230.881 C 78.641 230.881,78.463 230.702,78.463 230.484 C 78.463 230.263,78.227 230.086,77.932 230.086 C 77.638 230.086,77.402 229.909,77.402 229.689 C 77.402 229.470,77.223 229.291,77.005 229.291 C 76.784 229.291,76.607 229.055,76.607 228.761 C 76.607 228.466,76.430 228.231,76.209 228.231 C 75.991 228.231,75.812 228.052,75.812 227.833 C 75.812 227.614,75.633 227.435,75.414 227.435 C 75.195 227.435,75.017 227.256,75.017 227.038 C 75.017 226.817,74.781 226.640,74.486 226.640 C 74.192 226.640,73.956 226.463,73.956 226.243 C 73.956 226.024,73.777 225.845,73.559 225.845 C 73.338 225.845,73.161 225.609,73.161 225.315 C 73.161 225.020,72.984 224.785,72.763 224.785 C 72.545 224.785,72.366 224.606,72.366 224.387 C 72.366 224.166,72.130 223.989,71.836 223.989 C 71.541 223.989,71.306 223.813,71.306 223.592 C 71.306 223.373,71.127 223.194,70.908 223.194 C 70.687 223.194,70.510 222.959,70.510 222.664 C 70.510 222.369,70.334 222.134,70.113 222.134 C 69.848 222.134,69.715 221.869,69.715 221.339 C 69.715 220.808,69.583 220.543,69.317 220.543 C 69.099 220.543,68.920 220.364,68.920 220.146 C 68.920 219.925,68.684 219.748,68.390 219.748 C 68.036 219.748,67.860 219.571,67.860 219.218 C 67.860 218.923,67.683 218.688,67.462 218.688 C 67.243 218.688,67.064 218.509,67.064 218.290 C 67.064 218.072,66.885 217.893,66.667 217.893 C 66.402 217.893,66.269 217.628,66.269 217.097 C 66.269 216.567,66.137 216.302,65.871 216.302 C 65.651 216.302,65.474 216.067,65.474 215.772 C 65.474 215.419,65.297 215.242,64.944 215.242 C 64.531 215.242,64.414 215.065,64.414 214.447 C 64.414 213.917,64.281 213.651,64.016 213.651 C 63.795 213.651,63.618 213.416,63.618 213.121 C 63.618 212.827,63.442 212.591,63.221 212.591 C 62.956 212.591,62.823 212.326,62.823 211.796 C 62.823 211.266,62.691 211.001,62.425 211.001 C 62.207 211.001,62.028 210.822,62.028 210.603 C 62.028 210.382,61.792 210.205,61.498 210.205 C 61.069 210.205,60.968 210.029,60.968 209.278 C 60.968 208.630,60.848 208.350,60.570 208.350 C 60.351 208.350,60.172 208.171,60.172 207.952 C 60.172 207.734,59.993 207.555,59.775 207.555 C 59.497 207.555,59.377 207.275,59.377 206.627 C 59.377 205.876,59.276 205.699,58.847 205.699 C 58.435 205.699,58.317 205.522,58.317 204.904 C 58.317 204.374,58.184 204.109,57.919 204.109 C 57.700 204.109,57.522 203.930,57.522 203.711 C 57.522 203.492,57.343 203.313,57.124 203.313 C 56.846 203.313,56.726 203.034,56.726 202.386 C 56.726 201.738,56.606 201.458,56.329 201.458 C 56.061 201.458,55.931 201.190,55.931 200.638 C 55.931 200.041,55.787 199.780,55.401 199.679 C 55.109 199.603,54.871 199.376,54.871 199.174 C 54.871 198.972,54.692 198.807,54.473 198.807 C 54.208 198.807,54.076 198.542,54.076 198.012 C 54.076 197.482,53.943 197.217,53.678 197.217 C 53.400 197.217,53.280 196.937,53.280 196.289 C 53.280 195.641,53.160 195.361,52.883 195.361 C 52.664 195.361,52.485 195.182,52.485 194.964 C 52.485 194.743,52.249 194.566,51.955 194.566 C 51.526 194.566,51.425 194.389,51.425 193.638 C 51.425 192.990,51.305 192.710,51.027 192.710 C 50.762 192.710,50.630 192.445,50.630 191.915 C 50.630 191.385,50.497 191.120,50.232 191.120 C 50.013 191.120,49.834 190.941,49.834 190.722 C 49.834 190.504,49.655 190.325,49.437 190.325 C 49.159 190.325,49.039 190.045,49.039 189.397 C 49.039 188.646,48.938 188.469,48.509 188.469 C 48.080 188.469,47.979 188.292,47.979 187.541 C 47.979 186.893,47.859 186.614,47.581 186.614 C 47.362 186.614,47.184 186.435,47.184 186.216 C 47.184 185.997,47.005 185.818,46.786 185.818 C 46.521 185.818,46.388 185.553,46.388 185.023 C 46.388 184.405,46.271 184.228,45.858 184.228 C 45.429 184.228,45.328 184.051,45.328 183.300 C 45.328 182.652,45.208 182.372,44.930 182.372 C 44.712 182.372,44.533 182.194,44.533 181.975 C 44.533 181.756,44.354 181.577,44.135 181.577 C 43.857 181.577,43.738 181.297,43.738 180.649 C 43.738 180.001,43.618 179.722,43.340 179.722 C 43.075 179.722,42.942 179.457,42.942 178.926 C 42.942 178.308,42.825 178.131,42.412 178.131 C 42.118 178.131,41.882 177.954,41.882 177.734 C 41.882 177.515,41.703 177.336,41.484 177.336 C 41.207 177.336,41.087 177.056,41.087 176.408 C 41.087 175.760,40.967 175.480,40.689 175.480 C 40.411 175.480,40.292 175.201,40.292 174.553 C 40.292 173.905,40.172 173.625,39.894 173.625 C 39.675 173.625,39.496 173.446,39.496 173.227 C 39.496 173.006,39.261 172.830,38.966 172.830 C 38.554 172.830,38.436 172.653,38.436 172.034 C 38.436 171.504,38.304 171.239,38.038 171.239 C 37.761 171.239,37.641 170.959,37.641 170.311 C 37.641 169.664,37.521 169.384,37.243 169.384 C 37.025 169.384,36.846 169.205,36.846 168.986 C 36.846 168.767,36.667 168.588,36.448 168.588 C 36.170 168.588,36.050 168.309,36.050 167.661 C 36.050 166.910,35.949 166.733,35.520 166.733 C 35.108 166.733,34.990 166.556,34.990 165.938 C 34.990 165.408,34.858 165.142,34.592 165.142 C 34.372 165.142,34.195 164.907,34.195 164.612 C 34.195 164.318,34.018 164.082,33.797 164.082 C 33.532 164.082,33.400 163.817,33.400 163.287 C 33.400 162.668,33.282 162.492,32.869 162.492 C 32.575 162.492,32.339 162.315,32.339 162.094 C 32.339 161.875,32.160 161.696,31.942 161.696 C 31.664 161.696,31.544 161.417,31.544 160.769 C 31.544 160.121,31.424 159.841,31.146 159.841 C 30.881 159.841,30.749 159.576,30.749 159.046 C 30.749 158.516,30.616 158.250,30.351 158.250 C 30.133 158.250,29.954 158.060,29.954 157.828 C 29.954 157.596,29.715 157.343,29.423 157.267 C 29.048 157.169,28.893 156.905,28.893 156.364 C 28.893 155.861,28.757 155.600,28.496 155.600 C 28.218 155.600,28.098 155.320,28.098 154.672 C 28.098 154.024,27.978 153.744,27.700 153.744 C 27.482 153.744,27.303 153.565,27.303 153.347 C 27.303 153.128,27.124 152.949,26.905 152.949 C 26.637 152.949,26.508 152.681,26.508 152.129 C 26.508 151.532,26.363 151.271,25.977 151.170 C 25.602 151.072,25.447 150.809,25.447 150.267 C 25.447 149.765,25.311 149.503,25.050 149.503 C 24.831 149.503,24.652 149.324,24.652 149.105 C 24.652 148.887,24.473 148.708,24.254 148.708 C 23.977 148.708,23.857 148.428,23.857 147.780 C 23.857 147.132,23.737 146.852,23.459 146.852 C 23.194 146.852,23.062 146.587,23.062 146.057 C 23.062 145.438,22.944 145.262,22.531 145.262 C 22.178 145.262,22.001 145.085,22.001 144.732 C 22.001 144.437,21.825 144.201,21.604 144.201 C 21.339 144.201,21.206 143.936,21.206 143.406 C 21.206 142.876,21.074 142.611,20.808 142.611 C 20.531 142.611,20.411 142.331,20.411 141.683 C 20.411 140.932,20.310 140.755,19.881 140.755 C 19.586 140.755,19.351 140.579,19.351 140.358 C 19.351 140.139,19.172 139.960,18.953 139.960 C 18.675 139.960,18.555 139.680,18.555 139.032 C 18.555 138.385,18.435 138.105,18.158 138.105 C 17.893 138.105,17.760 137.840,17.760 137.309 C 17.760 136.779,17.628 136.514,17.362 136.514 C 17.144 136.514,16.965 136.335,16.965 136.117 C 16.965 135.896,16.729 135.719,16.435 135.719 C 16.006 135.719,15.905 135.542,15.905 134.791 C 15.905 134.143,15.785 133.863,15.507 133.863 C 15.242 133.863,15.109 133.598,15.109 133.068 C 15.109 132.538,14.977 132.273,14.712 132.273 C 14.491 132.273,14.314 132.037,14.314 131.743 C 14.314 131.448,14.137 131.213,13.917 131.213 C 13.651 131.213,13.519 130.948,13.519 130.417 C 13.519 129.799,13.401 129.622,12.989 129.622 C 12.560 129.622,12.459 129.446,12.459 128.694 C 12.459 128.047,12.339 127.767,12.061 127.767 C 11.842 127.767,11.663 127.588,11.663 127.369 C 11.663 127.150,11.484 126.972,11.266 126.972 C 10.988 126.972,10.868 126.692,10.868 126.044 C 10.868 125.396,10.748 125.116,10.471 125.116 C 10.205 125.116,10.073 124.851,10.073 124.321 C 10.073 123.702,9.955 123.526,9.543 123.526 C 9.248 123.526,9.013 123.349,9.013 123.128 C 9.013 122.909,8.834 122.730,8.615 122.730 C 8.337 122.730,8.217 122.450,8.217 121.803 C 8.217 121.155,8.097 120.875,7.820 120.875 C 7.555 120.875,7.422 120.610,7.422 120.080 C 7.422 119.461,7.304 119.284,6.892 119.284 C 6.463 119.284,6.362 119.108,6.362 118.357 C 6.362 117.709,6.242 117.429,5.964 117.429 C 5.687 117.429,5.567 117.149,5.567 116.501 C 5.567 115.853,5.447 115.573,5.169 115.573 C 4.874 115.573,4.771 115.264,4.771 114.380 C 4.771 113.497,4.668 113.188,4.374 113.188 C 4.096 113.188,3.976 112.908,3.976 112.260 C 3.976 111.509,3.875 111.332,3.446 111.332 C 2.970 111.332,2.916 111.155,2.916 109.609 C 2.916 108.254,2.831 107.886,2.518 107.886 C 2.206 107.886,2.121 107.518,2.121 106.163 C 2.121 104.808,2.036 104.440,1.723 104.440 C 1.386 104.440,1.325 103.777,1.325 100.066 L 1.325 95.693 0.663 95.693 L 0.000 95.693 0.000 180.384 " stroke="none" fill="#ffffff" fill-rule="evenodd"></path></g></svg>